<svg xmlns="http://www.w3.org/2000/svg" fill="none" viewBox="0 0 983 494" height="494" width="983">
<g clip-path="url(#clip0_1126_36341)">
<rect fill="url(#paint0_linear_1126_36341)" height="494" width="983"></rect>
<path fill-opacity="0.25" fill="url(#paint1_linear_1126_36341)" d="M479.282 779.783C412.689 779.783 346.091 780.908 279.564 778.726C268.221 778.328 255.54 765.815 246.553 755.882C171.739 673.246 171.228 542.863 244.576 461.416C320.922 376.593 443.467 365.869 529.5 439.369C591.76 492.605 650.138 550.81 712.46 603.983C728.967 618.019 753.436 627.952 774.593 628.615C800.466 629.411 818.818 608.553 826.405 582.068C834.564 553.725 825.066 530.021 804.226 510.951C742.093 454.073 678.622 398.714 618.017 340.179C510.637 236.552 534.726 58.3639 664.153 -11.6267C739.416 -52.3501 829.522 -41.69 896.182 17.7091C954.999 70.0855 1012.35 124.319 1071.05 176.892C1082.77 187.42 1096.73 198.016 1111.32 201.658C1140.83 209.074 1165.81 198.478 1181.42 169.741C1196.46 142.13 1192.45 111.472 1168.49 88.5599C1132.61 54.196 1095.52 21.0856 1058.68 -12.2215C1052.5 -17.8489 1044.92 -21.8247 1038.04 -26.5234L1042.88 -35.5273C1110.24 -35.5273 1177.54 -36.058 1244.89 -34.8639C1252.8 -34.7312 1261.65 -26.5875 1268.16 -20.164C1350.42 61.4155 1356.29 194.511 1281.86 281.384C1206.85 368.856 1079.27 379.782 992.153 303.963C930.337 250.195 870.498 193.848 810.148 138.159C789.691 119.287 767.579 109.157 740.305 117.832C690.664 133.657 679.194 195.504 720.104 234.041C779.881 290.324 841.758 344.16 901.597 400.443C964.496 459.573 987.437 533.868 966.218 619.158C945.955 700.605 893.826 753.247 815.313 773.574C743.621 792.113 678.745 774.503 622.86 723.449C565.443 671.004 508.153 618.495 450.415 566.384C413.072 532.679 376.939 532.349 349.917 564.531C323.983 595.523 330.416 634.192 367.252 668.026C405.3 702.92 443.471 737.687 481.58 772.581C480.814 775.029 480.114 777.55 479.352 779.998L479.286 779.801L479.282 779.783Z"></path>
<path stroke="url(#paint2_linear_1126_36341)" d="M428.568 780.428C445.353 780.356 462.138 780.284 478.92 780.283L479.37 781.623L479.83 780.146C480.212 778.918 480.579 777.672 480.944 776.431C481.31 775.188 481.676 773.95 482.058 772.731L482.152 772.427L481.918 772.213C465.384 757.074 448.84 741.96 432.3 726.849C410.713 707.129 389.132 687.414 367.591 667.657C349.227 650.791 338.486 632.76 335.539 615.13C332.594 597.516 337.419 580.246 350.3 564.853C363.736 548.851 379.39 540.98 396.288 541.25C413.203 541.52 431.461 549.95 450.08 566.755C497.273 609.349 544.167 652.208 591.076 695.083C601.556 704.661 612.037 714.241 622.523 723.818C678.525 774.979 743.573 792.642 815.438 774.058C894.133 753.684 946.397 700.9 966.703 619.279C987.967 533.81 964.968 459.33 901.94 400.079C872.21 372.116 841.977 344.757 811.753 317.405L811.163 316.871C780.741 289.341 750.331 261.814 720.447 233.677C679.768 195.358 691.238 133.999 740.457 118.308C767.491 109.71 789.422 119.719 809.809 138.527C822.131 149.897 834.432 161.295 846.733 172.693C894.677 217.117 942.625 261.546 991.824 304.34C1079.16 380.346 1207.05 369.387 1282.24 281.71C1356.85 194.634 1350.96 61.2422 1268.51 -20.519L1268.51 -20.5197C1265.25 -23.7333 1261.39 -27.3999 1257.34 -30.2804C1253.3 -33.1527 1249.01 -35.2949 1244.9 -35.3638C1193.39 -36.277 1141.91 -36.1816 1090.42 -36.0861C1074.58 -36.0567 1058.73 -36.0273 1042.88 -36.0273H1042.58L1042.44 -35.7642L1037.6 -26.7603L1037.38 -26.3641L1037.76 -26.1105C1039.93 -24.6274 1042.18 -23.2098 1044.43 -21.7956C1045.74 -20.9671 1047.06 -20.1397 1048.35 -19.301C1051.87 -17.0212 1055.29 -14.6379 1058.35 -11.8517L1058.35 -11.8506C1063.98 -6.76066 1069.61 -1.67552 1075.25 3.41002C1106.49 31.6057 1137.75 59.8134 1168.14 88.921L1168.14 88.9213C1191.94 111.675 1195.92 142.086 1180.98 169.502L1180.98 169.503C1173.22 183.794 1163.14 193.54 1151.38 198.8C1139.61 204.061 1126.11 204.858 1111.45 201.173L1111.45 201.172C1096.98 197.563 1083.1 187.042 1071.38 176.52L1071.38 176.52C1043.53 151.573 1015.98 126.252 988.429 100.93L984 96.8588C954.972 70.1819 925.926 43.5269 896.514 17.3358C829.702 -42.1993 739.369 -52.893 663.915 -12.0665C534.187 58.0873 510.05 236.68 617.669 340.539C658.812 380.276 701.28 418.555 743.747 456.831C763.841 474.943 783.935 493.055 803.888 511.32C824.617 530.288 834.021 553.803 825.924 581.929L825.924 581.93C818.366 608.314 800.149 628.901 774.609 628.116C753.573 627.456 729.211 617.57 712.784 603.602C681.632 577.023 651.464 549.185 621.296 521.332L620.658 520.743C590.705 493.088 560.744 465.426 529.825 438.989L529.825 438.989C443.575 365.304 320.723 376.067 244.205 461.082C170.682 542.722 171.199 673.394 246.182 756.218C250.681 761.19 256.122 766.828 261.869 771.275C267.603 775.712 273.713 779.021 279.546 779.226L279.547 779.226C329.194 780.854 378.882 780.641 428.568 780.428Z"></path>
</g>
<defs>
<linearGradient gradientUnits="userSpaceOnUse" y2="784.717" x2="154.032" y1="78.5" x1="-13" id="paint0_linear_1126_36341">
<stop stop-color="#3E65FF"></stop>
<stop stop-color="#7A92FC" offset="0.90919"></stop>
</linearGradient>
<linearGradient gradientUnits="userSpaceOnUse" y2="287.996" x2="467.188" y1="269.5" x1="964.5" id="paint1_linear_1126_36341">
<stop stop-opacity="0.02" stop-color="#FAFAFA" offset="0.0812327"></stop>
<stop stop-opacity="0.36" stop-color="#FAFAFA" offset="1"></stop>
</linearGradient>
<linearGradient gradientUnits="userSpaceOnUse" y2="261.681" x2="834.93" y1="277.5" x1="396" id="paint2_linear_1126_36341">
<stop stop-opacity="0.35" stop-color="white"></stop>
<stop stop-opacity="0" stop-color="white" offset="1"></stop>
</linearGradient>
<clipPath id="clip0_1126_36341">
<rect fill="white" height="494" width="983"></rect>
</clipPath>
</defs>
</svg>
