<svg xmlns="http://www.w3.org/2000/svg" fill="none" viewBox="0 0 175 29" height="29" width="175">
<g clip-path="url(#clip0_390_12352)">
<path fill="#FAFAFA" d="M68.4726 2.61698C68.5308 -0.869683 73.722 -0.874971 73.7837 2.61698C73.6585 5.96439 68.5995 5.95734 68.4726 2.61698Z"></path>
<path fill="#FAFAFA" d="M110.343 20.3127C110.359 16.8208 115.633 16.8349 115.649 20.3127C115.589 23.8011 110.403 23.8152 110.343 20.3127Z"></path>
<path fill="#FAFAFA" d="M24.9297 19.1653C19.8178 19.3328 19.809 10.1807 24.9297 10.3482C30.0751 10.1772 30.1033 19.368 24.9297 19.1653ZM24.9297 6.47373C13.9391 6.25868 13.9391 23.2513 24.9297 23.0363C35.9714 23.2513 35.9573 6.25691 24.9297 6.47373ZM63.3359 15.171C63.1367 14.7832 62.8653 14.4289 62.5568 14.1239C63.1473 13.7115 67.1152 7.49787 67.6423 6.79983H62.4616L59.257 11.7601C59.0296 12.2167 57.9737 12.1656 57.429 12.1567V2.77377C57.4467 -0.104751 54.584 0.799526 52.8371 0.644406L52.8424 22.7842H57.4308V16.1493C57.9244 16.1475 58.7264 16.1052 58.9044 16.493L61.4357 21.2718C62.1443 22.5674 62.8476 22.7877 64.1714 22.7877H67.6969C66.5511 20.9668 64.2631 17.08 63.3394 15.1675M85.6238 6.43671C83.0326 6.47902 81.7352 7.52784 80.6864 8.63659C80.4185 6.43142 77.9489 6.81217 76.2126 6.79983L76.2267 22.7877H80.7851C81.1518 19.2781 79.0823 10.7219 84.7565 10.699C86.1773 10.699 86.7378 11.4499 86.7378 13.3924V20.3587C86.5915 23.209 89.3343 22.793 91.3297 22.7895C90.7938 17.8133 93.7817 5.9643 85.622 6.43847M71.1889 6.80159H69.026C69.0295 9.47917 69.0436 20.3358 69.0401 22.7895C70.3234 22.7895 72.3047 22.7912 73.5703 22.7895V22.7842H73.5791L73.5879 9.23063C73.5826 7.59482 72.8035 6.79983 71.1871 6.79983M42.8302 19.1653C37.7165 19.331 37.713 10.1825 42.8302 10.3482C47.972 10.179 48.0055 19.368 42.8302 19.1653ZM42.8302 6.47373C31.8325 6.25868 31.8325 23.2531 42.8302 23.0363C53.8666 23.2478 53.8613 6.25868 42.8302 6.47373Z"></path>
<path fill="#FAFAFA" d="M140.533 19.1637C135.419 19.3294 135.416 10.1808 140.533 10.3465C145.678 10.1755 145.706 19.3664 140.533 19.1637ZM140.533 6.47206C129.537 6.25525 129.533 23.2514 140.533 23.0346C151.575 23.2479 151.559 6.25701 140.533 6.47206Z"></path>
<path fill="#FAFAFA" d="M100.927 18.4564C96.9489 18.7896 95.8878 10.5964 100.693 10.4237C105.146 9.78206 105.248 18.7913 100.927 18.4564ZM106.434 6.75899C105.447 6.75546 104.77 7.19967 104.444 7.97879C100.062 4.08494 92.4593 7.62096 92.9052 14.3651C92.5615 20.6739 99.2669 24.7247 103.98 21.1587C104.416 25.1407 99.8504 25.4879 97.03 24.3545C96.064 24.0636 95.4947 24.3069 95.1069 25.2729C94.8865 25.7929 94.4406 26.9404 94.2308 27.4727C95.9318 28.4334 98.0982 28.9975 100.12 28.9993C112.288 29.1544 107.714 14.552 108.549 6.7537H106.434"></path>
<path fill="#FAFAFA" d="M7.95517 18.9789L4.24287 18.9736V14.5386C4.24287 13.5867 4.61128 13.0985 5.42037 12.9839H7.95164C11.9037 12.7812 11.9072 19.2045 7.95693 18.9789H7.95517ZM4.24287 7.01354C4.04369 3.93936 4.97088 4.27075 7.52506 4.2778C10.8231 4.03278 11.1827 9.53952 7.58323 9.5783H4.24464V7.01354H4.24287ZM12.6916 11.438L12.0218 11.0608C13.2134 10.0296 14.3133 9.17817 14.4279 6.38249C14.4843 0.100147 7.08791 0.505574 2.24395 0.655405C1.00475 0.699473 0.0141018 1.71304 0 2.95223V22.7053C5.4803 22.7 15.4485 23.9621 15.2899 16.2608C15.2899 14.1614 14.3186 12.3581 12.6916 11.4397"></path>
<path fill="#FAFAFA" d="M169.271 6.49093C167.174 6.48035 165.245 7.57853 164.047 9.27956C162.331 5.29757 156.839 6.00265 154.838 8.84416C154.524 6.48564 152.441 6.86639 150.528 6.85405L150.509 22.7802H154.863C155.245 19.3852 153.253 10.7779 158.57 10.5434C159.751 10.658 160.331 11.5729 160.331 13.3373V22.7802H164.713C165.113 19.2989 163.066 11.0458 168.353 10.5381C169.693 10.5381 170.19 11.2943 170.19 13.3373V20.4517C170.043 23.1874 172.645 22.7838 174.563 22.782C174.029 18.1249 176.964 5.94096 169.271 6.49269M129.665 17.2523C127.877 19.6708 120.93 20.6949 120.795 14.7881C120.795 12.1334 122.556 10.272 125.076 10.272C125.931 10.2843 126.883 10.5558 126.991 11.1375C127.327 12.7821 129.763 12.2286 130.923 12.3185C131.41 7.95046 129.192 6.71127 125.073 6.4874C120.04 6.4874 116.39 9.98993 116.39 14.8163C116.24 23.8608 128.117 25.2075 131.799 20.1221L129.91 16.9879L129.666 17.2506"></path>
</g>
<defs>
<clipPath id="clip0_390_12352">
<rect fill="white" height="29.0005" width="174.685"></rect>
</clipPath>
</defs>
</svg>
