<svg xmlns="http://www.w3.org/2000/svg" fill="none" viewBox="0 0 140 25" height="25" width="140">
<path fill="#FAFAFA" d="M71.2865 0C71.2918 0.136549 71.3011 0.271772 71.3011 0.40832C71.3011 3.28247 71.3011 6.1553 71.3011 9.02945V9.34895C71.4191 9.37944 71.4482 9.29459 71.4946 9.24819C73.686 6.98387 76.3468 6.45358 79.2607 7.35772C82.6439 8.40769 84.5132 10.8775 85.1429 14.2939C85.5406 16.4535 85.2675 18.564 84.2189 20.5141C82.8215 23.1152 80.6394 24.6093 77.691 24.9566C77.6287 24.9646 77.5677 24.9844 77.5068 24.999H76.0882C75.5633 24.8983 75.0316 24.832 74.5199 24.6623C73.2817 24.2526 72.2357 23.558 71.3793 22.5769C71.3568 22.5504 71.3276 22.5292 71.2984 22.5027C71.203 22.5783 71.2441 22.675 71.2441 22.7572C71.2401 23.3021 71.2348 23.8483 71.2441 24.3932C71.2481 24.6066 71.1659 24.6809 70.9551 24.6795C69.8097 24.6742 68.6642 24.6729 67.5188 24.6795C67.3014 24.6795 67.2219 24.5894 67.2391 24.3852C67.2444 24.3309 67.2391 24.2765 67.2391 24.2222C67.2391 16.2573 67.2391 8.29235 67.2391 0.327452C67.2391 0.218743 67.2431 0.108709 67.2457 0C68.5926 0 69.9382 0 71.2852 0L71.2865 0ZM76.1784 21.2327C78.041 21.2313 79.5696 20.367 80.4684 18.7602C81.0676 17.689 81.2373 16.529 81.1167 15.3067C80.8542 12.6367 78.7781 10.4891 75.7316 10.7542C74.3118 10.8775 73.1558 11.4993 72.2901 12.6221C71.3475 13.8444 71.0598 15.2471 71.2321 16.765C71.5251 19.3395 73.5588 21.2897 76.1784 21.2327Z"></path>
<path fill="#FAFAFA" d="M130.51 24.999C129.983 24.9022 129.45 24.8545 128.928 24.7246C125.359 23.8377 122.824 21.0629 122.335 17.4159C122.038 15.2006 122.368 13.0795 123.56 11.1453C124.926 8.92866 126.91 7.59367 129.462 7.1363C132.038 6.67495 134.448 7.09785 136.572 8.69666C138.313 10.0078 139.282 11.7935 139.633 13.9293C139.669 14.144 139.701 14.3588 139.734 14.5736V16.9758C139.616 16.9797 139.498 16.9864 139.38 16.9864C135.216 16.9864 131.052 16.9864 126.886 16.9864C126.795 16.9864 126.705 16.989 126.613 16.9877C126.47 16.985 126.413 17.054 126.441 17.1932C126.69 18.4539 127.215 19.5649 128.251 20.3683C129.45 21.2976 130.83 21.5375 132.301 21.3055C133.654 21.0934 134.727 20.4544 135.327 19.1672C135.403 19.0054 135.522 18.9763 135.68 18.9776C136.571 18.9802 137.462 18.9789 138.353 18.9789C138.699 18.9789 139.043 18.9829 139.389 18.9789C139.567 18.9763 139.65 19.0359 139.587 19.2242C139.567 19.2838 139.554 19.3475 139.535 19.4071C138.651 22.1288 136.748 23.7833 134.068 24.6212C133.424 24.8227 132.755 24.9009 132.091 24.999H130.508H130.51ZM131.138 14.0738C132.521 14.0738 133.903 14.0711 135.285 14.0764C135.472 14.0764 135.582 14.0565 135.525 13.8232C135.307 12.9336 134.899 12.1581 134.192 11.5602C133.31 10.8125 132.274 10.5315 131.134 10.5368C129.018 10.546 127.369 11.7511 126.742 13.7649C126.65 14.0592 126.66 14.0738 126.963 14.0751C128.355 14.0751 129.746 14.0751 131.138 14.0751V14.0738Z"></path>
<path fill="#FAFAFA" d="M27.4564 24.9987C27.0375 24.9165 26.612 24.89 26.193 24.8038C22.4903 24.0455 19.7819 21.1886 19.2529 17.4395C18.8804 14.8026 19.4385 12.3885 21.1089 10.2833C22.5089 8.51743 24.3622 7.47144 26.5722 7.10687C28.9214 6.71976 31.1605 7.07638 33.2047 8.35171C35.2861 9.65092 36.6052 11.5202 37.0997 13.9131C37.7745 17.1744 37.0254 20.0777 34.6471 22.464C33.1477 23.9686 31.2798 24.7468 29.1706 24.955C29.0897 24.9629 29.0102 24.9828 28.9306 24.9974H27.4564V24.9987ZM28.8087 21.2337C30.2749 21.1886 31.7849 20.2911 32.689 18.4484C33.1915 17.4249 33.3254 16.3299 33.1716 15.2057C32.9714 13.7354 32.3298 12.5052 31.1022 11.6302C30.0827 10.905 28.9373 10.6346 27.6951 10.7552C26.3614 10.8838 25.2518 11.4459 24.4166 12.4946C23.3958 13.7792 23.1134 15.2653 23.3122 16.8641C23.6331 19.44 25.6521 21.2297 28.8087 21.2324V21.2337Z"></path>
<path fill="#FAFAFA" d="M112.279 24.9985C111.615 24.9057 110.945 24.8474 110.292 24.6763C108.754 24.272 107.419 23.5482 106.444 22.2529C105.829 21.435 105.486 20.5056 105.331 19.4994C105.299 19.2926 105.331 19.1985 105.568 19.1998C106.723 19.2078 107.877 19.2064 109.033 19.2011C109.218 19.2011 109.308 19.2595 109.35 19.4517C109.541 20.3121 110.103 20.8662 110.879 21.2162C111.735 21.602 112.65 21.6869 113.574 21.6444C114.145 21.6179 114.716 21.553 115.259 21.3488C115.577 21.2295 115.878 21.0757 116.117 20.8304C116.813 20.1159 116.656 18.8975 115.809 18.3712C115.26 18.0305 114.637 17.9497 114.017 17.8516C112.681 17.6381 111.328 17.5201 110.011 17.1914C109.211 16.9925 108.455 16.6889 107.765 16.2315C106.491 15.3884 105.884 14.174 105.779 12.6813C105.682 11.2972 106.074 10.0749 107.034 9.05543C107.775 8.26796 108.686 7.74165 109.711 7.43408C111.914 6.77388 114.13 6.73676 116.298 7.55207C118.483 8.37269 119.748 9.98609 120.124 12.2942C120.154 12.4758 120.094 12.55 119.916 12.55C118.762 12.55 117.607 12.55 116.451 12.55C116.321 12.55 116.227 12.5076 116.186 12.3671C115.838 11.1686 114.948 10.6224 113.795 10.4156C112.776 10.2327 111.764 10.2777 110.791 10.6675C110.061 10.9592 109.716 11.4603 109.716 12.151C109.716 12.733 110.012 13.1267 110.5 13.3985C111.067 13.7153 111.7 13.8055 112.329 13.9062C113.781 14.1396 115.258 14.243 116.674 14.6712C117.818 15.0172 118.842 15.5674 119.589 16.5378C120.375 17.5573 120.602 18.7345 120.504 19.9873C120.427 20.9802 120.097 21.8817 119.458 22.6626C118.667 23.6277 117.627 24.1964 116.459 24.557C115.746 24.7784 115.012 24.9163 114.265 24.9574C114.202 24.9614 114.141 24.9839 114.08 24.9985H112.279Z"></path>
<path fill="#FAFAFA" d="M0.00265143 15.1203C0.11136 14.4667 0.202835 13.8118 0.409646 13.1768C1.21568 10.699 2.76942 8.84436 5.15703 7.8103C8.33345 6.43421 11.4502 6.64367 14.3495 8.59247C16.1671 9.81478 17.2171 11.5952 17.689 13.723C17.7328 13.9179 17.6718 13.9842 17.4743 13.9842C16.2109 13.9789 14.9461 13.9775 13.6827 13.9842C13.4772 13.9842 13.403 13.8821 13.3354 13.7124C12.6712 12.0751 11.486 11.0437 9.72545 10.7852C7.30204 10.4299 5.06954 11.7066 4.3457 14.2307C3.87242 15.8799 3.9798 17.5039 4.90117 18.9901C5.78145 20.4112 7.09258 21.1377 8.76828 21.2318C10.9425 21.3538 12.6871 20.0573 13.3513 18.1854C13.4136 18.009 13.5183 17.9507 13.6973 17.952C14.9342 17.956 16.1711 17.9573 17.408 17.952C17.6532 17.9507 17.701 18.0408 17.6453 18.2662C16.8591 21.4957 14.8984 23.6261 11.722 24.6297C11.1029 24.8245 10.4625 24.8935 9.8262 24.9995H8.29766C7.53272 24.8961 6.77043 24.7887 6.03466 24.5395C3.36334 23.634 1.5259 21.8669 0.531612 19.2247C0.251886 18.481 0.12064 17.7015 0 16.9206V15.119L0.00265143 15.1203Z"></path>
<path fill="#FAFAFA" d="M52.2949 9.47085C52.6741 8.98033 53.0333 8.57864 53.4668 8.24456C54.4505 7.4889 55.5734 7.10842 56.7944 7.00502C58.136 6.891 59.4485 7.01297 60.6854 7.59761C62.4194 8.4169 63.407 9.83674 63.9254 11.6331C64.1866 12.5399 64.2913 13.4705 64.294 14.4091C64.3046 17.7022 64.2993 20.9953 64.2993 24.2884C64.2993 24.6702 64.2926 24.6781 63.9254 24.6781C62.8065 24.6781 61.6876 24.6781 60.5687 24.6781C60.2121 24.6781 60.2015 24.6675 60.2015 24.3096C60.2015 21.0801 60.2015 17.8507 60.2001 14.6213C60.2001 13.5965 59.9284 12.6618 59.239 11.8797C58.7061 11.2765 58.0313 10.9291 57.2411 10.7966C56.2495 10.6295 55.299 10.7462 54.416 11.2407C53.2534 11.8916 52.6502 12.9336 52.4129 14.2129C52.328 14.669 52.3042 15.133 52.3055 15.597C52.3068 18.4897 52.3055 21.3824 52.3055 24.2751C52.3055 24.6781 52.3055 24.6781 51.8919 24.6795C50.7915 24.6795 49.6899 24.6742 48.5895 24.6834C48.335 24.6861 48.2382 24.6132 48.2395 24.3441C48.2462 18.7774 48.2462 13.2094 48.2395 7.64269C48.2395 7.38019 48.3244 7.298 48.5842 7.29932C49.7124 7.30993 50.8406 7.30993 51.9674 7.29932C52.2207 7.29667 52.3015 7.3855 52.2976 7.63208C52.2856 8.21937 52.2936 8.80799 52.2936 9.47085H52.2949Z"></path>
<path fill="#FAFAFA" d="M44.9903 15.9955C44.9903 18.7596 44.9903 21.5238 44.9903 24.2879C44.9903 24.6763 44.989 24.6776 44.5926 24.6776C43.4923 24.6776 42.3919 24.6776 41.2916 24.6776C40.9363 24.6776 40.9297 24.671 40.9297 24.3064C40.9297 19.9872 40.9297 15.6681 40.9297 11.3489C40.9297 11.0661 40.7927 10.9247 40.5187 10.9247C39.9182 10.9247 39.3189 10.918 38.7184 10.9273C38.4996 10.93 38.4095 10.861 38.4108 10.6303C38.4188 9.62148 38.4188 8.61128 38.4108 7.60241C38.4095 7.37969 38.4864 7.29882 38.7118 7.30015C40.703 7.30545 42.6942 7.3081 44.6854 7.2975C44.9612 7.29617 44.9943 7.42212 44.9943 7.64616C44.9904 10.4288 44.9917 13.2115 44.9917 15.9929L44.9903 15.9955Z"></path>
<path fill="#FAFAFA" d="M42.9506 0.157795C44.4327 0.152492 45.5569 1.24753 45.5768 2.71643C45.5967 4.1482 44.4394 5.29362 42.9678 5.29892C41.491 5.30422 40.3509 4.1893 40.3429 2.73499C40.3349 1.282 41.4671 0.164424 42.9493 0.159121L42.9506 0.157795Z"></path>
<path fill="#FAFAFA" d="M98.5666 21.961C98.312 22.4065 98.0734 22.779 97.7764 23.1117C96.8551 24.1458 95.6712 24.688 94.3269 24.8723C92.8395 25.0765 91.3719 24.9956 89.956 24.4176C88.1358 23.6739 86.9811 21.9915 86.944 20.0255C86.9215 18.8589 87.1773 17.7837 87.9197 16.8623C88.5826 16.0404 89.4576 15.5154 90.4346 15.1415C91.6344 14.6815 92.8898 14.484 94.1572 14.3448C95.0614 14.2454 95.9642 14.134 96.8193 13.7973C96.9121 13.7601 97.0022 13.7151 97.0924 13.674C98.2961 13.1158 98.2113 11.7066 97.3549 11.0278C96.8975 10.6659 96.3659 10.4883 95.7985 10.4207C94.9805 10.3226 94.1639 10.3292 93.3698 10.5943C92.3715 10.9271 91.7073 11.5807 91.4647 12.62C91.4183 12.8189 91.3255 12.8878 91.1293 12.8878C89.9746 12.8825 88.8186 12.8825 87.6639 12.8878C87.4425 12.8878 87.3828 12.8149 87.4226 12.5922C87.9078 9.91159 89.4337 8.13381 92.0533 7.37285C94.1281 6.77097 96.228 6.78025 98.2868 7.463C100.468 8.18684 101.712 9.73527 102.078 11.9969C102.154 12.4636 102.187 12.9356 102.187 13.4088C102.186 15.8283 102.187 18.2477 102.187 20.6685C102.187 21.0569 102.187 21.0582 102.581 21.0582C103.017 21.0582 103.454 21.0648 103.891 21.0556C104.092 21.0516 104.162 21.1338 104.161 21.33C104.156 22.3574 104.158 23.3862 104.158 24.4136C104.158 24.5515 104.141 24.6774 103.961 24.6734C102.998 24.6522 102.029 24.7689 101.075 24.6005C99.7425 24.3659 98.898 23.5108 98.6249 22.1811C98.6143 22.1294 98.5984 22.079 98.5679 21.961H98.5666ZM98.1556 16.0788C97.6624 16.6303 97.0327 16.8888 96.3526 17.0638C95.8223 17.2004 95.2788 17.2455 94.7392 17.3131C93.8722 17.4204 93.0078 17.5437 92.2058 17.9189C91.6808 18.1642 91.2367 18.5009 91.0431 19.0776C90.7011 20.0984 91.2539 21.0688 92.3702 21.4175C93.0768 21.6389 93.8019 21.6813 94.5258 21.5474C96.2492 21.2306 97.5113 20.341 98.0336 18.6017C98.2802 17.781 98.1635 16.9286 98.1556 16.0802V16.0788Z"></path>
</svg>
