<svg xmlns="http://www.w3.org/2000/svg" fill="none" viewBox="0 0 131 45" height="45" width="131">
<path fill="#FAFAFA" d="M117.978 18.3381C119.549 18.3381 120.823 17.064 120.823 15.4924C120.823 13.9207 119.549 12.6466 117.978 12.6466C116.406 12.6466 115.132 13.9207 115.132 15.4924C115.132 17.064 116.406 18.3381 117.978 18.3381Z"></path>
<path fill="#FAFAFA" d="M77.3293 27.6275C78.7255 27.6275 79.5305 26.5804 79.477 25.5601C79.4503 25.0225 79.3968 24.6735 79.3433 24.406C78.4848 20.7004 75.4772 17.9616 71.9053 17.9616C67.6634 17.9616 64.2265 21.8009 64.2265 26.527C64.2265 31.253 67.6634 35.0923 71.9053 35.0923C74.5638 35.0923 76.4694 34.1255 77.8388 32.5956C78.5102 31.844 78.3764 30.6886 77.57 30.1256C76.8987 29.6696 76.0669 29.8301 75.4491 30.3409C74.858 30.8504 73.7307 31.8708 71.9053 31.8708C69.7576 31.8708 67.9322 30.0186 67.5283 27.5754H77.328V27.6289L77.3293 27.6275ZM71.8785 21.2099C73.8122 21.2099 75.4758 22.713 76.0937 24.7804H67.6634C68.2812 22.6862 69.9461 21.2099 71.8785 21.2099Z"></path>
<path fill="#FAFAFA" d="M64.386 19.6542C64.386 18.8492 63.7949 18.2046 63.0434 18.0695C60.7071 17.7205 58.5059 18.5791 57.2435 20.1637V19.9484C57.2435 18.9548 56.4385 18.337 55.6321 18.337C54.7454 18.337 54.0206 19.0618 54.0206 19.9484V33.1048C54.0206 33.9633 54.6652 34.7162 55.5238 34.7697C56.4639 34.8232 57.2422 34.0984 57.2422 33.1582V26.3648C57.2422 23.3572 59.4982 20.8872 62.6128 21.2363H62.935C63.7401 21.1828 64.3847 20.4847 64.3847 19.6516L64.386 19.6542Z"></path>
<path fill="#FAFAFA" d="M119.589 21.3725C119.589 20.4859 118.864 19.761 117.978 19.761C117.091 19.761 116.366 20.4859 116.366 21.3725V33.1594C116.366 34.046 117.091 34.7708 117.978 34.7708C118.864 34.7708 119.589 34.046 119.589 33.1594V21.3725Z"></path>
<path fill="#FAFAFA" d="M95.64 12.4576C95.64 11.571 94.9152 10.8462 94.0286 10.8462C93.1419 10.8462 92.4171 11.571 92.4171 12.4576V19.6268C91.3165 18.5262 89.9471 17.9887 88.309 17.9887C84.0671 17.9887 80.6302 21.828 80.6302 26.554C80.6302 31.28 84.0671 35.1194 88.309 35.1194C89.9471 35.1194 91.3433 34.5551 92.4439 33.4545C92.5776 34.206 93.2489 34.7704 94.0286 34.7704C94.9152 34.7704 95.64 34.0456 95.64 33.1589V12.4576ZM88.337 31.9233C85.8671 31.9233 83.8798 29.5335 83.8798 26.5527C83.8798 23.5719 85.8671 21.1821 88.337 21.1821C90.807 21.1821 92.7943 23.5719 92.7943 26.5527C92.7943 29.5335 90.7803 31.9233 88.337 31.9233Z"></path>
<path fill="#FAFAFA" d="M112.448 12.4576C112.448 11.571 111.723 10.8462 110.836 10.8462C109.95 10.8462 109.225 11.571 109.225 12.4576V19.6268C108.124 18.5262 106.755 17.9887 105.117 17.9887C100.875 17.9887 97.4381 21.828 97.4381 26.554C97.4381 31.28 100.875 35.1194 105.117 35.1194C106.755 35.1194 108.151 34.5551 109.252 33.4545C109.385 34.206 110.057 34.7704 110.836 34.7704C111.723 34.7704 112.448 34.0456 112.448 33.1589V12.4576ZM105.118 31.9233C102.648 31.9233 100.661 29.5335 100.661 26.5527C100.661 23.5719 102.648 21.1821 105.118 21.1821C107.588 21.1821 109.575 23.5719 109.575 26.5527C109.575 29.5335 107.588 31.9233 105.118 31.9233Z"></path>
<path fill="#FAFAFA" d="M127.751 33.185V21.2095H129.173C129.925 21.2095 130.596 20.6452 130.65 19.8669C130.703 19.0351 130.032 18.337 129.227 18.337H127.751V16.081C127.751 15.2225 127.106 14.4696 126.247 14.4161C125.307 14.3626 124.529 15.0874 124.529 16.0275V18.3638H123.186C122.435 18.3638 121.763 18.9281 121.71 19.7064C121.656 20.5382 122.328 21.2363 123.133 21.2363H124.502V33.2118C124.502 34.0984 125.227 34.8232 126.114 34.8232C127.054 34.7697 127.752 34.0717 127.752 33.185H127.751Z"></path>
<path fill="#FAFAFA" d="M19.6809 24.8355C19.6809 23.5463 18.6338 22.4992 17.3447 22.4992C16.0555 22.4992 15.0084 23.5463 15.0084 24.8355C15.0084 26.1246 16.0555 27.1985 17.3447 27.1717C18.6338 27.1717 19.6809 26.1246 19.6809 24.8355Z"></path>
<path fill="#FAFAFA" d="M27.6558 27.1985C28.9461 27.1985 29.9921 26.1526 29.9921 24.8623C29.9921 23.572 28.9461 22.526 27.6558 22.526C26.3655 22.526 25.3196 23.572 25.3196 24.8623C25.3196 26.1526 26.3655 27.1985 27.6558 27.1985Z"></path>
<path fill="#FAFAFA" d="M27.2256 30.1795C26.232 31.1999 24.0576 31.5489 22.5264 31.5489C20.9952 31.5489 18.8475 31.1999 17.8271 30.1795C17.5851 29.9375 17.2093 29.9375 16.9686 30.1795C16.7265 30.4216 16.7265 30.7973 16.9686 31.038C18.5533 32.6227 21.613 32.7565 22.5264 32.7565C23.4397 32.7565 26.4727 32.6495 28.0842 31.038C28.2995 30.796 28.2995 30.4202 28.0842 30.1795C27.8421 29.9375 27.4663 29.9375 27.2256 30.1795Z"></path>
<path fill="#FAFAFA" d="M22.5 0C10.0738 0 0 10.0738 0 22.5C0 34.9261 10.0738 45 22.5 45C34.9261 45 45 34.9261 45 22.5C45 10.0738 34.9261 0 22.5 0ZM37.5085 22.5C37.5085 23.8426 36.7034 24.9967 35.5747 25.5076C35.6282 25.8299 35.655 26.1789 35.655 26.5012C35.655 31.5762 29.7749 35.6563 22.5254 35.6563C15.2759 35.6563 9.39584 31.5481 9.39584 26.5012C9.39584 26.1522 9.42259 25.8299 9.47608 25.5076C8.34874 24.9981 7.54235 23.8694 7.54235 22.5267C7.54235 20.7281 8.99198 19.2517 10.8174 19.2517C11.704 19.2517 12.5091 19.6007 13.1001 20.1651C15.3829 18.5269 18.5242 17.4798 22.0146 17.3728L23.6795 9.53224C23.7062 9.37177 23.7865 9.2367 23.9215 9.15646C24.0285 9.07623 24.1903 9.04948 24.3508 9.07623L29.8016 10.2303C30.1774 9.45201 30.9825 8.91441 31.8958 8.91441C33.185 8.91441 34.2321 9.96151 34.2321 11.2507C34.2321 12.5398 33.185 13.5869 31.8958 13.5869C30.6067 13.5869 29.6131 12.5933 29.5596 11.359L24.6731 10.3119L23.17 17.3461C26.6068 17.4798 29.6946 18.5269 31.9493 20.1383C32.5404 19.574 33.3455 19.225 34.2321 19.225C36.0308 19.225 37.5071 20.6746 37.5071 22.5H37.5085Z"></path>
</svg>
