<svg width="1920" height="8040" viewBox="0 0 1920 8040" fill="none" xmlns="http://www.w3.org/2000/svg">
<path d="M1827.75 359.382C1826.58 359.382 1826.58 357.738 1827.75 357.738C1828.93 357.738 1828.93 359.382 1827.75 359.382Z" fill="#F3B5AA">
   <animate attributeName="opacity" values="1;0;1" dur="1s" repeatCount="indefinite"/>
</path>
<path d="M1711.02 211.624C1709.84 211.624 1709.84 209.98 1711.02 209.98C1712.19 209.98 1712.19 211.624 1711.02 211.624Z" fill="#F3B5AA"/>
<path d="M1664.32 403.153C1663.95 403.153 1663.95 402.668 1664.32 402.668C1664.7 402.668 1664.7 403.153 1664.32 403.153Z" fill="white">
       <animate attributeName="opacity" values="1;0;1" dur="1s" repeatCount="indefinite"/>
</path>
<path d="M1703.28 281.485C1702.91 281.485 1702.91 281 1703.28 281C1703.65 281 1703.65 281.485 1703.28 281.485Z" fill="white">
      <animate attributeName="opacity" values="1;0;1" dur="1s" repeatCount="indefinite" />
</path>
<path d="M1757.71 299.698C1757.34 299.698 1757.34 299.213 1757.71 299.213C1758.09 299.213 1758.09 299.698 1757.71 299.698Z" fill="white"/>
<path d="M1734.37 344.049C1733.99 344.049 1733.99 343.564 1734.37 343.564C1734.74 343.564 1734.74 344.049 1734.37 344.049Z" fill="#4F4FC7"/>
<path d="M1804.41 182.264C1802.96 182.264 1802.96 180.28 1804.41 180.28C1805.85 180.232 1805.85 182.264 1804.41 182.264Z" fill="#4F4FC7">
      <animate attributeName="opacity" values="1;0;1" dur="1s" repeatCount="indefinite" />
</path>
<path d="M1702.09 389.984C1700.64 389.984 1700.64 388 1702.09 388C1703.53 388 1703.53 389.984 1702.09 389.984Z" fill="#4F4FC7">
       <animate attributeName="opacity" values="1;0;1" dur="1s" repeatCount="indefinite"/>
</path>
<path d="M1734.37 344.049C1733.99 344.049 1733.99 343.564 1734.37 343.564C1734.74 343.564 1734.74 344.049 1734.37 344.049Z" fill="#4F4FC7">
      <animate attributeName="opacity" values="1;0;1" dur="1s" repeatCount="indefinite" />
</path>
<path d="M1804.41 182.264C1802.96 182.264 1802.96 180.28 1804.41 180.28C1805.85 180.232 1805.85 182.264 1804.41 182.264Z" fill="#4F4FC7"/>
<path d="M1702.09 389.984C1700.64 389.984 1700.64 388 1702.09 388C1703.53 388 1703.53 389.984 1702.09 389.984Z" fill="#4F4FC7"/>
<path d="M1874.45 418.683C1873 418.683 1873 416.699 1874.45 416.699C1875.89 416.699 1875.89 418.683 1874.45 418.683Z" fill="#4F4FC7">
      <animate attributeName="opacity" values="1;0;1" dur="1s" repeatCount="indefinite" />
</path>
<path d="M1851.27 270.324C1852.64 269.821 1853.68 269.252 1853.59 269.053C1853.5 268.854 1852.32 269.101 1850.95 269.603C1849.58 270.106 1848.54 270.675 1848.63 270.874C1848.72 271.073 1849.9 270.826 1851.27 270.324Z" fill="white">
      <animate attributeName="opacity" values="1;0;1" dur="1s" repeatCount="indefinite" />
</path>
<path d="M1852.12 272.203C1852.34 272.123 1852.07 271.055 1851.51 269.818C1850.95 268.581 1850.32 267.644 1850.1 267.725C1849.88 267.806 1850.16 268.874 1850.71 270.11C1851.27 271.347 1851.9 272.284 1852.12 272.203Z" fill="white">
      <animate attributeName="opacity" values="1;0;1" dur="1s" repeatCount="indefinite" />
</path>
<path d="M1718.88 1135.64C1717.71 1135.64 1717.71 1134 1718.88 1134C1720.06 1133.95 1720.06 1135.64 1718.88 1135.64Z" fill="#F3B5AA"/>
<path d="M1828.88 642.644C1827.71 642.644 1827.71 641 1828.88 641C1830.06 641 1830.06 642.644 1828.88 642.644Z" fill="#F3B5AA">
      <animate attributeName="opacity" values="1;0;1" dur="1s" repeatCount="indefinite" />
</path>
<path d="M1808.88 960.644C1807.71 960.644 1807.71 959 1808.88 959C1810.06 959 1810.06 960.644 1808.88 960.644Z" fill="#F3B5AA"/>
<path d="M1776.88 497.645C1775.71 497.645 1775.71 496.001 1776.88 496.001C1778.06 495.953 1778.06 497.645 1776.88 497.645Z" fill="#F3B5AA">
      <animate attributeName="opacity" values="1;0;1" dur="1s" repeatCount="indefinite" />
</path>
<path d="M1666.09 495.985C1664.64 495.985 1664.64 494.001 1666.09 494.001C1667.48 493.953 1667.53 495.985 1666.09 495.985Z" fill="#4F4FC7"/>
<path d="M1715.88 796.644C1714.71 796.644 1714.71 795 1715.88 795C1717.06 795 1717.06 796.644 1715.88 796.644Z" fill="#F3B5AA">
      <animate attributeName="opacity" values="1;0;1" dur="1s" repeatCount="indefinite" />
</path>
<path d="M1716.88 1329.64C1715.71 1329.64 1715.71 1328 1716.88 1328C1718.06 1328 1718.06 1329.64 1716.88 1329.64Z" fill="#F3B5AA"/>
<path d="M1679.09 927.984C1677.64 927.984 1677.64 926 1679.09 926C1680.53 926 1680.53 927.984 1679.09 927.984Z" fill="#4F4FC7">
      <animate attributeName="opacity" values="1;0;1" dur="1s" repeatCount="indefinite" />
</path>
<path d="M1857.88 1180.64C1856.71 1180.64 1856.71 1179 1857.88 1179C1859.06 1179 1859.06 1180.64 1857.88 1180.64Z" fill="#F3B5AA"/>
<path d="M1888.86 1296.47C1888.49 1296.47 1888.49 1295.99 1888.86 1295.99C1889.24 1295.94 1889.24 1296.47 1888.86 1296.47Z" fill="white">
      <animate attributeName="opacity" values="1;0;1" dur="1s" repeatCount="indefinite" />
</path>
<path d="M1828.28 1035.48C1827.91 1035.48 1827.91 1035 1828.28 1035C1828.65 1035 1828.65 1035.48 1828.28 1035.48Z" fill="white"/>
<path d="M1807.09 1242.98C1805.64 1242.98 1805.64 1241 1807.09 1241C1808.53 1241 1808.48 1242.98 1807.09 1242.98Z" fill="#4F4FC7">
      <animate attributeName="opacity" values="1;0;1" dur="1s" repeatCount="indefinite" />
</path>
<path d="M1702.09 1178.99C1700.64 1178.99 1700.64 1177.01 1702.09 1177.01C1703.48 1177.01 1703.48 1178.99 1702.09 1178.99Z" fill="#4F4FC7"/>
<path d="M1816.09 689.984C1814.64 689.984 1814.64 688 1816.09 688C1817.48 688 1817.48 689.984 1816.09 689.984Z" fill="#4F4FC7">
      <animate attributeName="opacity" values="1;0;1" dur="1s" repeatCount="indefinite" />
</path>
<path d="M1704.09 666.984C1702.64 666.984 1702.64 665 1704.09 665C1705.48 665 1705.48 666.984 1704.09 666.984Z" fill="#4F4FC7"/>
<path d="M1827.75 1674.41C1826.58 1674.41 1826.58 1672.77 1827.75 1672.77C1828.93 1672.77 1828.93 1674.41 1827.75 1674.41Z" fill="#F3B5AA">
      <animate attributeName="opacity" values="1;0;1" dur="1s" repeatCount="indefinite" />
</path>
<path d="M1711.02 1526.65C1709.84 1526.65 1709.84 1525.01 1711.02 1525.01C1712.19 1525.01 1712.19 1526.65 1711.02 1526.65Z" fill="#F3B5AA"/>
<path d="M1781.06 1393.64C1779.88 1393.64 1779.88 1392 1781.06 1392C1782.23 1392 1782.23 1393.64 1781.06 1393.64Z" fill="#F3B5AA"/>
<path d="M1664.32 1718.18C1663.95 1718.18 1663.95 1717.7 1664.32 1717.7C1664.7 1717.7 1664.7 1718.18 1664.32 1718.18Z" fill="white">
      <animate attributeName="opacity" values="1;0;1" dur="1s" repeatCount="indefinite" />
</path>
<path d="M1703.28 1596.51C1702.91 1596.51 1702.91 1596.03 1703.28 1596.03C1703.65 1596.03 1703.65 1596.51 1703.28 1596.51Z" fill="white">
      <animate attributeName="opacity" values="1;0;1" dur="1s" repeatCount="indefinite" />
</path>
<path d="M1757.71 1614.73C1757.34 1614.73 1757.34 1614.24 1757.71 1614.24C1758.09 1614.24 1758.09 1614.73 1757.71 1614.73Z" fill="white"/>
<path d="M1689.28 1421.51C1688.91 1421.51 1688.91 1421.03 1689.28 1421.03C1689.65 1421.03 1689.65 1421.51 1689.28 1421.51Z" fill="white">
      <animate attributeName="opacity" values="1;0;1" dur="1s" repeatCount="indefinite" />
</path>
<path d="M1734.37 1659.08C1733.99 1659.08 1733.99 1658.59 1734.37 1658.59C1734.74 1658.59 1734.74 1659.08 1734.37 1659.08Z" fill="#4F4FC7"/>
<path d="M1804.41 1497.29C1802.96 1497.29 1802.96 1495.31 1804.41 1495.31C1805.85 1495.26 1805.85 1497.29 1804.41 1497.29Z" fill="#4F4FC7"/>
<path d="M1702.09 1705.01C1700.64 1705.01 1700.64 1703.03 1702.09 1703.03C1703.53 1703.03 1703.53 1705.01 1702.09 1705.01Z" fill="#4F4FC7">
      <animate attributeName="opacity" values="1;0;1" dur="1s" repeatCount="indefinite" />
</path>
<path d="M1874.45 1733.71C1873 1733.71 1873 1731.73 1874.45 1731.73C1875.89 1731.73 1875.89 1733.71 1874.45 1733.71Z" fill="#4F4FC7"/>
<path d="M1851.27 1585.35C1852.64 1584.85 1853.68 1584.28 1853.59 1584.08C1853.5 1583.88 1852.32 1584.13 1850.95 1584.63C1849.58 1585.13 1848.54 1585.7 1848.63 1585.9C1848.72 1586.1 1849.9 1585.85 1851.27 1585.35Z" fill="white">
      <animate attributeName="opacity" values="1;0;1" dur="1s" repeatCount="indefinite" />
</path>
<path d="M1852.12 1587.23C1852.34 1587.15 1852.07 1586.08 1851.51 1584.85C1850.95 1583.61 1850.32 1582.67 1850.1 1582.75C1849.88 1582.83 1850.16 1583.9 1850.71 1585.14C1851.27 1586.37 1851.9 1587.31 1852.12 1587.23Z" fill="white"/>
<path d="M1718.88 2450.67C1717.71 2450.67 1717.71 2449.03 1718.88 2449.03C1720.06 2448.98 1720.06 2450.67 1718.88 2450.67Z" fill="#F3B5AA"/>
<path d="M1828.88 1957.67C1827.71 1957.67 1827.71 1956.03 1828.88 1956.03C1830.06 1956.03 1830.06 1957.67 1828.88 1957.67Z" fill="#F3B5AA">
      <animate attributeName="opacity" values="1;0;1" dur="1s" repeatCount="indefinite" />
</path>
<path d="M1808.88 2275.67C1807.71 2275.67 1807.71 2274.03 1808.88 2274.03C1810.06 2274.03 1810.06 2275.67 1808.88 2275.67Z" fill="#F3B5AA"/>
<path d="M1776.88 1812.67C1775.71 1812.67 1775.71 1811.03 1776.88 1811.03C1778.06 1810.98 1778.06 1812.67 1776.88 1812.67Z" fill="#F3B5AA">
      <animate attributeName="opacity" values="1;0;1" dur="1s" repeatCount="indefinite" />
</path>
<path d="M1666.09 1811.01C1664.64 1811.01 1664.64 1809.03 1666.09 1809.03C1667.48 1808.98 1667.53 1811.01 1666.09 1811.01Z" fill="#4F4FC7"/>
<path d="M1715.88 2111.67C1714.71 2111.67 1714.71 2110.03 1715.88 2110.03C1717.06 2110.03 1717.06 2111.67 1715.88 2111.67Z" fill="#F3B5AA">
      <animate attributeName="opacity" values="1;0;1" dur="1s" repeatCount="indefinite" />
</path>
<path d="M1716.88 2644.67C1715.71 2644.67 1715.71 2643.03 1716.88 2643.03C1718.06 2643.03 1718.06 2644.67 1716.88 2644.67Z" fill="#F3B5AA"/>
<path d="M1679.09 2243.01C1677.64 2243.01 1677.64 2241.03 1679.09 2241.03C1680.53 2241.03 1680.53 2243.01 1679.09 2243.01Z" fill="#4F4FC7">
      <animate attributeName="opacity" values="1;0;1" dur="1s" repeatCount="indefinite" />
</path>
<path d="M1857.88 2495.67C1856.71 2495.67 1856.71 2494.03 1857.88 2494.03C1859.06 2494.03 1859.06 2495.67 1857.88 2495.67Z" fill="#F3B5AA"/>
<path d="M1888.86 2611.5C1888.49 2611.5 1888.49 2611.01 1888.86 2611.01C1889.24 2610.97 1889.24 2611.5 1888.86 2611.5Z" fill="white">
      <animate attributeName="opacity" values="1;0;1" dur="1s" repeatCount="indefinite" />
</path>
<path d="M1828.28 2350.51C1827.91 2350.51 1827.91 2350.03 1828.28 2350.03C1828.65 2350.03 1828.65 2350.51 1828.28 2350.51Z" fill="white"/>
<path d="M1807.09 2558.01C1805.64 2558.01 1805.64 2556.03 1807.09 2556.03C1808.53 2556.03 1808.48 2558.01 1807.09 2558.01Z" fill="#4F4FC7">
      <animate attributeName="opacity" values="1;0;1" dur="1s" repeatCount="indefinite" />
</path>
<path d="M1702.09 2494.02C1700.64 2494.02 1700.64 2492.04 1702.09 2492.04C1703.48 2492.04 1703.48 2494.02 1702.09 2494.02Z" fill="#4F4FC7"/>
<path d="M1816.09 2005.01C1814.64 2005.01 1814.64 2003.03 1816.09 2003.03C1817.48 2003.03 1817.48 2005.01 1816.09 2005.01Z" fill="#4F4FC7"/>
<path d="M1704.09 1982.01C1702.64 1982.01 1702.64 1980.03 1704.09 1980.03C1705.48 1980.03 1705.48 1982.01 1704.09 1982.01Z" fill="#4F4FC7">
      <animate attributeName="opacity" values="1;0;1" dur="1s" repeatCount="indefinite" />
</path>
<path d="M1827.75 2954.41C1826.58 2954.41 1826.58 2952.77 1827.75 2952.77C1828.93 2952.77 1828.93 2954.41 1827.75 2954.41Z" fill="#F3B5AA">
      <animate attributeName="opacity" values="1;0;1" dur="1s" repeatCount="indefinite" />
</path>
<path d="M1827.75 4234.41C1826.58 4234.41 1826.58 4232.77 1827.75 4232.77C1828.93 4232.77 1828.93 4234.41 1827.75 4234.41Z" fill="#F3B5AA">
      <animate attributeName="opacity" values="1;0;1" dur="1s" repeatCount="indefinite" />
</path>
<path d="M1827.75 5514.41C1826.58 5514.41 1826.58 5512.77 1827.75 5512.77C1828.93 5512.77 1828.93 5514.41 1827.75 5514.41Z" fill="#F3B5AA">
      <animate attributeName="opacity" values="1;0;1" dur="1s" repeatCount="indefinite" />
</path>
<path d="M1827.75 6794.41C1826.58 6794.41 1826.58 6792.77 1827.75 6792.77C1828.93 6792.77 1828.93 6794.41 1827.75 6794.41Z" fill="#F3B5AA"/>
<path d="M1711.02 2806.65C1709.84 2806.65 1709.84 2805.01 1711.02 2805.01C1712.19 2805.01 1712.19 2806.65 1711.02 2806.65Z" fill="#F3B5AA">
      <animate attributeName="opacity" values="1;0;1" dur="1s" repeatCount="indefinite" />
</path>
<path d="M1711.02 4086.65C1709.84 4086.65 1709.84 4085.01 1711.02 4085.01C1712.19 4085.01 1712.19 4086.65 1711.02 4086.65Z" fill="#F3B5AA"/>
<path d="M1711.02 5366.65C1709.84 5366.65 1709.84 5365.01 1711.02 5365.01C1712.19 5365.01 1712.19 5366.65 1711.02 5366.65Z" fill="#F3B5AA">
      <animate attributeName="opacity" values="1;0;1" dur="1s" repeatCount="indefinite" />
</path>
<path d="M1711.02 6646.65C1709.84 6646.65 1709.84 6645.01 1711.02 6645.01C1712.19 6645.01 1712.19 6646.65 1711.02 6646.65Z" fill="#F3B5AA"/>
<path d="M1781.06 2673.64C1779.88 2673.64 1779.88 2672 1781.06 2672C1782.23 2672 1782.23 2673.64 1781.06 2673.64Z" fill="#F3B5AA"/>
<path d="M1781.06 3953.64C1779.88 3953.64 1779.88 3952 1781.06 3952C1782.23 3952 1782.23 3953.64 1781.06 3953.64Z" fill="#F3B5AA">
      <animate attributeName="opacity" values="1;0;1" dur="1s" repeatCount="indefinite" />
</path>
<path d="M1781.06 5233.64C1779.88 5233.64 1779.88 5232 1781.06 5232C1782.23 5232 1782.23 5233.64 1781.06 5233.64Z" fill="#F3B5AA">
      <animate attributeName="opacity" values="1;0;1" dur="1s" repeatCount="indefinite" />
</path>
<path d="M1781.06 6513.64C1779.88 6513.64 1779.88 6512 1781.06 6512C1782.23 6512 1782.23 6513.64 1781.06 6513.64Z" fill="#F3B5AA">
      <animate attributeName="opacity" values="1;0;1" dur="1s" repeatCount="indefinite" />
</path>
<path d="M1664.32 2998.18C1663.95 2998.18 1663.95 2997.7 1664.32 2997.7C1664.7 2997.7 1664.7 2998.18 1664.32 2998.18Z" fill="white">
      <animate attributeName="opacity" values="1;0;1" dur="1s" repeatCount="indefinite" />
</path>
<path d="M1664.32 4278.18C1663.95 4278.18 1663.95 4277.7 1664.32 4277.7C1664.7 4277.7 1664.7 4278.18 1664.32 4278.18Z" fill="white">
      <animate attributeName="opacity" values="1;0;1" dur="1s" repeatCount="indefinite" />
</path>
<path d="M1664.32 5558.18C1663.95 5558.18 1663.95 5557.7 1664.32 5557.7C1664.7 5557.7 1664.7 5558.18 1664.32 5558.18Z" fill="white">
      <animate attributeName="opacity" values="1;0;1" dur="1s" repeatCount="indefinite" />
</path>
<path d="M1664.32 6838.18C1663.95 6838.18 1663.95 6837.7 1664.32 6837.7C1664.7 6837.7 1664.7 6838.18 1664.32 6838.18Z" fill="white">
      <animate attributeName="opacity" values="1;0;1" dur="1s" repeatCount="indefinite" />
</path>
<path d="M1703.28 2876.51C1702.91 2876.51 1702.91 2876.03 1703.28 2876.03C1703.65 2876.03 1703.65 2876.51 1703.28 2876.51Z" fill="white"/>
<path d="M1703.28 4156.51C1702.91 4156.51 1702.91 4156.03 1703.28 4156.03C1703.65 4156.03 1703.65 4156.51 1703.28 4156.51Z" fill="white">
      <animate attributeName="opacity" values="1;0;1" dur="1s" repeatCount="indefinite" />
</path>
<path d="M1703.28 5436.51C1702.91 5436.51 1702.91 5436.03 1703.28 5436.03C1703.65 5436.03 1703.65 5436.51 1703.28 5436.51Z" fill="white">
      <animate attributeName="opacity" values="1;0;1" dur="1s" repeatCount="indefinite" />
</path>
<path d="M1703.28 6716.51C1702.91 6716.51 1702.91 6716.03 1703.28 6716.03C1703.65 6716.03 1703.65 6716.51 1703.28 6716.51Z" fill="white"/>
<path d="M1757.71 2894.73C1757.34 2894.73 1757.34 2894.24 1757.71 2894.24C1758.09 2894.24 1758.09 2894.73 1757.71 2894.73Z" fill="white"/>
<path d="M1757.71 4174.73C1757.34 4174.73 1757.34 4174.24 1757.71 4174.24C1758.09 4174.24 1758.09 4174.73 1757.71 4174.73Z" fill="white"/>
<path d="M1757.71 5454.73C1757.34 5454.73 1757.34 5454.24 1757.71 5454.24C1758.09 5454.24 1758.09 5454.73 1757.71 5454.73Z" fill="white"/>
<path d="M1757.71 6734.73C1757.34 6734.73 1757.34 6734.24 1757.71 6734.24C1758.09 6734.24 1758.09 6734.73 1757.71 6734.73Z" fill="white"/>
<path d="M1689.28 2701.51C1688.91 2701.51 1688.91 2701.03 1689.28 2701.03C1689.65 2701.03 1689.65 2701.51 1689.28 2701.51Z" fill="white"/>
<path d="M1689.28 3981.51C1688.91 3981.51 1688.91 3981.03 1689.28 3981.03C1689.65 3981.03 1689.65 3981.51 1689.28 3981.51Z" fill="white"/>
<path d="M1689.28 5261.51C1688.91 5261.51 1688.91 5261.03 1689.28 5261.03C1689.65 5261.03 1689.65 5261.51 1689.28 5261.51Z" fill="white"/>
<path d="M1689.28 6541.51C1688.91 6541.51 1688.91 6541.03 1689.28 6541.03C1689.65 6541.03 1689.65 6541.51 1689.28 6541.51Z" fill="white"/>
<path d="M1734.37 2939.08C1733.99 2939.08 1733.99 2938.59 1734.37 2938.59C1734.74 2938.59 1734.74 2939.08 1734.37 2939.08Z" fill="#4F4FC7"/>
<path d="M1734.37 4219.08C1733.99 4219.08 1733.99 4218.59 1734.37 4218.59C1734.74 4218.59 1734.74 4219.08 1734.37 4219.08Z" fill="#4F4FC7"/>
<path d="M1734.37 5499.08C1733.99 5499.08 1733.99 5498.59 1734.37 5498.59C1734.74 5498.59 1734.74 5499.08 1734.37 5499.08Z" fill="#4F4FC7"/>
<path d="M1734.37 6779.08C1733.99 6779.08 1733.99 6778.59 1734.37 6778.59C1734.74 6778.59 1734.74 6779.08 1734.37 6779.08Z" fill="#4F4FC7"/>
<path d="M1804.41 2777.29C1802.96 2777.29 1802.96 2775.31 1804.41 2775.31C1805.85 2775.26 1805.85 2777.29 1804.41 2777.29Z" fill="#4F4FC7"/>
<path d="M1804.41 4057.29C1802.96 4057.29 1802.96 4055.31 1804.41 4055.31C1805.85 4055.26 1805.85 4057.29 1804.41 4057.29Z" fill="#4F4FC7"/>
<path d="M1804.41 5337.29C1802.96 5337.29 1802.96 5335.31 1804.41 5335.31C1805.85 5335.26 1805.85 5337.29 1804.41 5337.29Z" fill="#4F4FC7"/>
<path d="M1804.41 6617.29C1802.96 6617.29 1802.96 6615.31 1804.41 6615.31C1805.85 6615.26 1805.85 6617.29 1804.41 6617.29Z" fill="#4F4FC7"/>
<path d="M1702.09 2985.01C1700.64 2985.01 1700.64 2983.03 1702.09 2983.03C1703.53 2983.03 1703.53 2985.01 1702.09 2985.01Z" fill="#4F4FC7"/>
<path d="M1702.09 4265.01C1700.64 4265.01 1700.64 4263.03 1702.09 4263.03C1703.53 4263.03 1703.53 4265.01 1702.09 4265.01Z" fill="#4F4FC7"/>
<path d="M1702.09 5545.01C1700.64 5545.01 1700.64 5543.03 1702.09 5543.03C1703.53 5543.03 1703.53 5545.01 1702.09 5545.01Z" fill="#4F4FC7"/>
<path d="M1702.09 6825.01C1700.64 6825.01 1700.64 6823.03 1702.09 6823.03C1703.53 6823.03 1703.53 6825.01 1702.09 6825.01Z" fill="#4F4FC7"/>
<path d="M1874.45 3013.71C1873 3013.71 1873 3011.73 1874.45 3011.73C1875.89 3011.73 1875.89 3013.71 1874.45 3013.71Z" fill="#4F4FC7"/>
<path d="M1874.45 4293.71C1873 4293.71 1873 4291.73 1874.45 4291.73C1875.89 4291.73 1875.89 4293.71 1874.45 4293.71Z" fill="#4F4FC7"/>
<path d="M1874.45 5573.71C1873 5573.71 1873 5571.73 1874.45 5571.73C1875.89 5571.73 1875.89 5573.71 1874.45 5573.71Z" fill="#4F4FC7"/>
<path d="M1874.45 6853.71C1873 6853.71 1873 6851.73 1874.45 6851.73C1875.89 6851.73 1875.89 6853.71 1874.45 6853.71Z" fill="#4F4FC7"/>
<path d="M1851.27 2865.35C1852.64 2864.85 1853.68 2864.28 1853.59 2864.08C1853.5 2863.88 1852.32 2864.13 1850.95 2864.63C1849.58 2865.13 1848.54 2865.7 1848.63 2865.9C1848.72 2866.1 1849.9 2865.85 1851.27 2865.35Z" fill="white"/>
<path d="M1852.12 2867.23C1852.34 2867.15 1852.07 2866.08 1851.51 2864.85C1850.95 2863.61 1850.32 2862.67 1850.1 2862.75C1849.88 2862.83 1850.16 2863.9 1850.71 2865.14C1851.27 2866.37 1851.9 2867.31 1852.12 2867.23Z" fill="white"/>
<path d="M1851.27 4145.35C1852.64 4144.85 1853.68 4144.28 1853.59 4144.08C1853.5 4143.88 1852.32 4144.13 1850.95 4144.63C1849.58 4145.13 1848.54 4145.7 1848.63 4145.9C1848.72 4146.1 1849.9 4145.85 1851.27 4145.35Z" fill="white"/>
<path d="M1852.12 4147.23C1852.34 4147.15 1852.07 4146.08 1851.51 4144.85C1850.95 4143.61 1850.32 4142.67 1850.1 4142.75C1849.88 4142.83 1850.16 4143.9 1850.71 4145.14C1851.27 4146.37 1851.9 4147.31 1852.12 4147.23Z" fill="white"/>
<path d="M1851.27 5425.35C1852.64 5424.85 1853.68 5424.28 1853.59 5424.08C1853.5 5423.88 1852.32 5424.13 1850.95 5424.63C1849.58 5425.13 1848.54 5425.7 1848.63 5425.9C1848.72 5426.1 1849.9 5425.85 1851.27 5425.35Z" fill="white"/>
<path d="M1852.12 5427.23C1852.34 5427.15 1852.07 5426.08 1851.51 5424.85C1850.95 5423.61 1850.32 5422.67 1850.1 5422.75C1849.88 5422.83 1850.16 5423.9 1850.71 5425.14C1851.27 5426.37 1851.9 5427.31 1852.12 5427.23Z" fill="white"/>
<path d="M1851.27 6705.35C1852.64 6704.85 1853.68 6704.28 1853.59 6704.08C1853.5 6703.88 1852.32 6704.13 1850.95 6704.63C1849.58 6705.13 1848.54 6705.7 1848.63 6705.9C1848.72 6706.1 1849.9 6705.85 1851.27 6705.35Z" fill="white"/>
<path d="M1852.12 6707.23C1852.34 6707.15 1852.07 6706.08 1851.51 6704.85C1850.95 6703.61 1850.32 6702.67 1850.1 6702.75C1849.88 6702.83 1850.16 6703.9 1850.71 6705.14C1851.27 6706.37 1851.9 6707.31 1852.12 6707.23Z" fill="white"/>
<path d="M1718.88 3730.67C1717.71 3730.67 1717.71 3729.03 1718.88 3729.03C1720.06 3728.98 1720.06 3730.67 1718.88 3730.67Z" fill="#F3B5AA"/>
<path d="M1718.88 5010.67C1717.71 5010.67 1717.71 5009.03 1718.88 5009.03C1720.06 5008.98 1720.06 5010.67 1718.88 5010.67Z" fill="#F3B5AA"/>
<path d="M1718.88 6290.67C1717.71 6290.67 1717.71 6289.03 1718.88 6289.03C1720.06 6288.98 1720.06 6290.67 1718.88 6290.67Z" fill="#F3B5AA"/>
<path d="M1718.88 7570.67C1717.71 7570.67 1717.71 7569.03 1718.88 7569.03C1720.06 7568.98 1720.06 7570.67 1718.88 7570.67Z" fill="#F3B5AA"/>
<path d="M1828.88 3237.67C1827.71 3237.67 1827.71 3236.03 1828.88 3236.03C1830.06 3236.03 1830.06 3237.67 1828.88 3237.67Z" fill="#F3B5AA"/>
<path d="M1828.88 4517.67C1827.71 4517.67 1827.71 4516.03 1828.88 4516.03C1830.06 4516.03 1830.06 4517.67 1828.88 4517.67Z" fill="#F3B5AA"/>
<path d="M1828.88 5797.67C1827.71 5797.67 1827.71 5796.03 1828.88 5796.03C1830.06 5796.03 1830.06 5797.67 1828.88 5797.67Z" fill="#F3B5AA"/>
<path d="M1828.88 7077.67C1827.71 7077.67 1827.71 7076.03 1828.88 7076.03C1830.06 7076.03 1830.06 7077.67 1828.88 7077.67Z" fill="#F3B5AA"/>
<path d="M1808.88 3555.67C1807.71 3555.67 1807.71 3554.03 1808.88 3554.03C1810.06 3554.03 1810.06 3555.67 1808.88 3555.67Z" fill="#F3B5AA"/>
<path d="M1808.88 4835.67C1807.71 4835.67 1807.71 4834.03 1808.88 4834.03C1810.06 4834.03 1810.06 4835.67 1808.88 4835.67Z" fill="#F3B5AA"/>
<path d="M1808.88 6115.67C1807.71 6115.67 1807.71 6114.03 1808.88 6114.03C1810.06 6114.03 1810.06 6115.67 1808.88 6115.67Z" fill="#F3B5AA"/>
<path d="M1808.88 7395.67C1807.71 7395.67 1807.71 7394.03 1808.88 7394.03C1810.06 7394.03 1810.06 7395.67 1808.88 7395.67Z" fill="#F3B5AA"/>
<path d="M1776.88 3092.67C1775.71 3092.67 1775.71 3091.03 1776.88 3091.03C1778.06 3090.98 1778.06 3092.67 1776.88 3092.67Z" fill="#F3B5AA"/>
<path d="M1776.88 4372.67C1775.71 4372.67 1775.71 4371.03 1776.88 4371.03C1778.06 4370.98 1778.06 4372.67 1776.88 4372.67Z" fill="#F3B5AA"/>
<path d="M1776.88 5652.67C1775.71 5652.67 1775.71 5651.03 1776.88 5651.03C1778.06 5650.98 1778.06 5652.67 1776.88 5652.67Z" fill="#F3B5AA"/>
<path d="M1776.88 6932.67C1775.71 6932.67 1775.71 6931.03 1776.88 6931.03C1778.06 6930.98 1778.06 6932.67 1776.88 6932.67Z" fill="#F3B5AA"/>
<path d="M1666.09 3091.01C1664.64 3091.01 1664.64 3089.03 1666.09 3089.03C1667.48 3088.98 1667.53 3091.01 1666.09 3091.01Z" fill="#4F4FC7">
      <animate attributeName="opacity" values="1;0;1" dur="1s" repeatCount="indefinite" />
</path>
<path d="M1666.09 4371.01C1664.64 4371.01 1664.64 4369.03 1666.09 4369.03C1667.48 4368.98 1667.53 4371.01 1666.09 4371.01Z" fill="#4F4FC7">
      <animate attributeName="opacity" values="1;0;1" dur="1s" repeatCount="indefinite" />
</path>
<path d="M1666.09 5651.01C1664.64 5651.01 1664.64 5649.03 1666.09 5649.03C1667.48 5648.98 1667.53 5651.01 1666.09 5651.01Z" fill="#4F4FC7">
      <animate attributeName="opacity" values="1;0;1" dur="1s" repeatCount="indefinite" />
</path>
<path d="M1666.09 6931.01C1664.64 6931.01 1664.64 6929.03 1666.09 6929.03C1667.48 6928.98 1667.53 6931.01 1666.09 6931.01Z" fill="#4F4FC7">
      <animate attributeName="opacity" values="1;0;1" dur="1s" repeatCount="indefinite" />
</path>
<path d="M1715.88 3391.67C1714.71 3391.67 1714.71 3390.03 1715.88 3390.03C1717.06 3390.03 1717.06 3391.67 1715.88 3391.67Z" fill="#F3B5AA">
      <animate attributeName="opacity" values="1;0;1" dur="1s" repeatCount="indefinite" />
</path>
<path d="M1715.88 4671.67C1714.71 4671.67 1714.71 4670.03 1715.88 4670.03C1717.06 4670.03 1717.06 4671.67 1715.88 4671.67Z" fill="#F3B5AA"/>
<path d="M1715.88 5951.67C1714.71 5951.67 1714.71 5950.03 1715.88 5950.03C1717.06 5950.03 1717.06 5951.67 1715.88 5951.67Z" fill="#F3B5AA"/>
<path d="M1715.88 7231.67C1714.71 7231.67 1714.71 7230.03 1715.88 7230.03C1717.06 7230.03 1717.06 7231.67 1715.88 7231.67Z" fill="#F3B5AA"/>
<path d="M1716.88 3924.67C1715.71 3924.67 1715.71 3923.03 1716.88 3923.03C1718.06 3923.03 1718.06 3924.67 1716.88 3924.67Z" fill="#F3B5AA">
      <animate attributeName="opacity" values="1;0;1" dur="1s" repeatCount="indefinite" />
</path>
<path d="M1716.88 5204.67C1715.71 5204.67 1715.71 5203.03 1716.88 5203.03C1718.06 5203.03 1718.06 5204.67 1716.88 5204.67Z" fill="#F3B5AA">
      <animate attributeName="opacity" values="1;0;1" dur="1s" repeatCount="indefinite" />
</path>
<path d="M1716.88 6484.67C1715.71 6484.67 1715.71 6483.03 1716.88 6483.03C1718.06 6483.03 1718.06 6484.67 1716.88 6484.67Z" fill="#F3B5AA"/>
<path d="M1716.88 7764.67C1715.71 7764.67 1715.71 7763.03 1716.88 7763.03C1718.06 7763.03 1718.06 7764.67 1716.88 7764.67Z" fill="#F3B5AA">
      <animate attributeName="opacity" values="1;0;1" dur="1s" repeatCount="indefinite" />
</path>
<path d="M1679.09 3523.01C1677.64 3523.01 1677.64 3521.03 1679.09 3521.03C1680.53 3521.03 1680.53 3523.01 1679.09 3523.01Z" fill="#4F4FC7"/>
<path d="M1679.09 4803.01C1677.64 4803.01 1677.64 4801.03 1679.09 4801.03C1680.53 4801.03 1680.53 4803.01 1679.09 4803.01Z" fill="#4F4FC7"/>
<path d="M1679.09 6083.01C1677.64 6083.01 1677.64 6081.03 1679.09 6081.03C1680.53 6081.03 1680.53 6083.01 1679.09 6083.01Z" fill="#4F4FC7"/>
<path d="M1679.09 7363.01C1677.64 7363.01 1677.64 7361.03 1679.09 7361.03C1680.53 7361.03 1680.53 7363.01 1679.09 7363.01Z" fill="#4F4FC7">
      <animate attributeName="opacity" values="1;0;1" dur="1s" repeatCount="indefinite" />
</path>
<path d="M1857.88 3775.67C1856.71 3775.67 1856.71 3774.03 1857.88 3774.03C1859.06 3774.03 1859.06 3775.67 1857.88 3775.67Z" fill="#F3B5AA"/>
<path d="M1857.88 5055.67C1856.71 5055.67 1856.71 5054.03 1857.88 5054.03C1859.06 5054.03 1859.06 5055.67 1857.88 5055.67Z" fill="#F3B5AA">
      <animate attributeName="opacity" values="1;0;1" dur="1s" repeatCount="indefinite" />
</path>
<path d="M1857.88 6335.67C1856.71 6335.67 1856.71 6334.03 1857.88 6334.03C1859.06 6334.03 1859.06 6335.67 1857.88 6335.67Z" fill="#F3B5AA">
      <animate attributeName="opacity" values="1;0;1" dur="1s" repeatCount="indefinite" />
</path>
<path d="M1857.88 7615.67C1856.71 7615.67 1856.71 7614.03 1857.88 7614.03C1859.06 7614.03 1859.06 7615.67 1857.88 7615.67Z" fill="#F3B5AA"/>
<path d="M1888.86 3891.5C1888.49 3891.5 1888.49 3891.01 1888.86 3891.01C1889.24 3890.97 1889.24 3891.5 1888.86 3891.5Z" fill="white"/>
<path d="M1888.86 5171.5C1888.49 5171.5 1888.49 5171.01 1888.86 5171.01C1889.24 5170.97 1889.24 5171.5 1888.86 5171.5Z" fill="white">
      <animate attributeName="opacity" values="1;0;1" dur="1s" repeatCount="indefinite" />
</path>
<path d="M1888.86 6451.5C1888.49 6451.5 1888.49 6451.01 1888.86 6451.01C1889.24 6450.97 1889.24 6451.5 1888.86 6451.5Z" fill="white"/>
<path d="M1888.86 7731.5C1888.49 7731.5 1888.49 7731.01 1888.86 7731.01C1889.24 7730.97 1889.24 7731.5 1888.86 7731.5Z" fill="white"/>
<path d="M1828.28 3630.51C1827.91 3630.51 1827.91 3630.03 1828.28 3630.03C1828.65 3630.03 1828.65 3630.51 1828.28 3630.51Z" fill="white"/>
<path d="M1828.28 4910.51C1827.91 4910.51 1827.91 4910.03 1828.28 4910.03C1828.65 4910.03 1828.65 4910.51 1828.28 4910.51Z" fill="white"/>
<path d="M1828.28 6190.51C1827.91 6190.51 1827.91 6190.03 1828.28 6190.03C1828.65 6190.03 1828.65 6190.51 1828.28 6190.51Z" fill="white"/>
<path d="M1828.28 7470.51C1827.91 7470.51 1827.91 7470.03 1828.28 7470.03C1828.65 7470.03 1828.65 7470.51 1828.28 7470.51Z" fill="white">
      <animate attributeName="opacity" values="1;0;1" dur="1s" repeatCount="indefinite" />
</path>
<path d="M1807.09 3838.01C1805.64 3838.01 1805.64 3836.03 1807.09 3836.03C1808.53 3836.03 1808.48 3838.01 1807.09 3838.01Z" fill="#4F4FC7">
      <animate attributeName="opacity" values="1;0;1" dur="1s" repeatCount="indefinite" />
</path>
<path d="M1807.09 5118.01C1805.64 5118.01 1805.64 5116.03 1807.09 5116.03C1808.53 5116.03 1808.48 5118.01 1807.09 5118.01Z" fill="#4F4FC7">
      <animate attributeName="opacity" values="1;0;1" dur="1s" repeatCount="indefinite" />
</path>
<path d="M1807.09 6398.01C1805.64 6398.01 1805.64 6396.03 1807.09 6396.03C1808.53 6396.03 1808.48 6398.01 1807.09 6398.01Z" fill="#4F4FC7">
      <animate attributeName="opacity" values="1;0;1" dur="1s" repeatCount="indefinite" />
</path>
<path d="M1807.09 7678.01C1805.64 7678.01 1805.64 7676.03 1807.09 7676.03C1808.53 7676.03 1808.48 7678.01 1807.09 7678.01Z" fill="#4F4FC7"/>
<path d="M1702.09 3774.02C1700.64 3774.02 1700.64 3772.04 1702.09 3772.04C1703.48 3772.04 1703.48 3774.02 1702.09 3774.02Z" fill="#4F4FC7">
      <animate attributeName="opacity" values="1;0;1" dur="1s" repeatCount="indefinite" />
</path>
<path d="M1702.09 5054.02C1700.64 5054.02 1700.64 5052.04 1702.09 5052.04C1703.48 5052.04 1703.48 5054.02 1702.09 5054.02Z" fill="#4F4FC7"/>
<path d="M1702.09 6334.02C1700.64 6334.02 1700.64 6332.04 1702.09 6332.04C1703.48 6332.04 1703.48 6334.02 1702.09 6334.02Z" fill="#4F4FC7">
      <animate attributeName="opacity" values="1;0;1" dur="1s" repeatCount="indefinite" />
</path>
<path d="M1702.09 7614.02C1700.64 7614.02 1700.64 7612.04 1702.09 7612.04C1703.48 7612.04 1703.48 7614.02 1702.09 7614.02Z" fill="#4F4FC7"/>
<path d="M1816.09 3285.01C1814.64 3285.01 1814.64 3283.03 1816.09 3283.03C1817.48 3283.03 1817.48 3285.01 1816.09 3285.01Z" fill="#4F4FC7">
      <animate attributeName="opacity" values="1;0;1" dur="1s" repeatCount="indefinite" />
</path>
<path d="M1816.09 4565.01C1814.64 4565.01 1814.64 4563.03 1816.09 4563.03C1817.48 4563.03 1817.48 4565.01 1816.09 4565.01Z" fill="#4F4FC7"/>
<path d="M1816.09 5845.01C1814.64 5845.01 1814.64 5843.03 1816.09 5843.03C1817.48 5843.03 1817.48 5845.01 1816.09 5845.01Z" fill="#4F4FC7">
      <animate attributeName="opacity" values="1;0;1" dur="1s" repeatCount="indefinite" />
</path>
<path d="M1816.09 7125.01C1814.64 7125.01 1814.64 7123.03 1816.09 7123.03C1817.48 7123.03 1817.48 7125.01 1816.09 7125.01Z" fill="#4F4FC7">
      <animate attributeName="opacity" values="1;0;1" dur="1s" repeatCount="indefinite" />
</path>
<path d="M1704.09 3262.01C1702.64 3262.01 1702.64 3260.03 1704.09 3260.03C1705.48 3260.03 1705.48 3262.01 1704.09 3262.01Z" fill="#4F4FC7">
      <animate attributeName="opacity" values="1;0;1" dur="1s" repeatCount="indefinite" />
</path>
<path d="M1704.09 4542.01C1702.64 4542.01 1702.64 4540.03 1704.09 4540.03C1705.48 4540.03 1705.48 4542.01 1704.09 4542.01Z" fill="#4F4FC7"/>
<path d="M1704.09 5822.01C1702.64 5822.01 1702.64 5820.03 1704.09 5820.03C1705.48 5820.03 1705.48 5822.01 1704.09 5822.01Z" fill="#4F4FC7">
      <animate attributeName="opacity" values="1;0;1" dur="1s" repeatCount="indefinite" />
</path>
<path d="M1704.09 7102.01C1702.64 7102.01 1702.64 7100.03 1704.09 7100.03C1705.48 7100.03 1705.48 7102.01 1704.09 7102.01Z" fill="#4F4FC7">
      <animate attributeName="opacity" values="1;0;1" dur="1s" repeatCount="indefinite" />
</path>
<path d="M199.71 359.382C198.534 359.382 198.534 357.738 199.71 357.738C200.887 357.738 200.887 359.382 199.71 359.382Z" fill="#F3B5AA">
      <animate attributeName="opacity" values="1;0;1" dur="1s" repeatCount="indefinite" />
</path>
<path d="M82.974 211.624C81.7977 211.624 81.7977 209.98 82.974 209.98C84.1502 209.98 84.1502 211.624 82.974 211.624Z" fill="#F3B5AA">
      <animate attributeName="opacity" values="1;0;1" dur="1s" repeatCount="indefinite" />
</path>
<path d="M36.2797 403.153C35.9068 403.153 35.9068 402.668 36.2797 402.668C36.6527 402.668 36.6527 403.153 36.2797 403.153Z" fill="white"/>
<path d="M75.2368 281.485C74.8638 281.485 74.8638 281 75.2368 281C75.6097 281 75.6097 281.485 75.2368 281.485Z" fill="white">
      <animate attributeName="opacity" values="1;0;1" dur="1s" repeatCount="indefinite" />
</path>
<path d="M129.67 299.698C129.297 299.698 129.297 299.213 129.67 299.213C130.043 299.213 130.043 299.698 129.67 299.698Z" fill="white">
      <animate attributeName="opacity" values="1;0;1" dur="1s" repeatCount="indefinite" />
</path>
<path d="M106.323 344.049C105.95 344.049 105.95 343.564 106.323 343.564C106.696 343.564 106.696 344.049 106.323 344.049Z" fill="#4F4FC7"/>
<path d="M176.364 182.264C174.918 182.264 174.918 180.28 176.364 180.28C177.811 180.232 177.811 182.264 176.364 182.264Z" fill="#4F4FC7">
      <animate attributeName="opacity" values="1;0;1" dur="1s" repeatCount="indefinite" />
</path>
<path d="M74.0421 389.984C72.5953 389.984 72.5953 388 74.0421 388C75.4889 388 75.4889 389.984 74.0421 389.984Z" fill="#4F4FC7"/>
<path d="M246.403 418.683C244.957 418.683 244.957 416.699 246.403 416.699C247.85 416.699 247.85 418.683 246.403 418.683Z" fill="#4F4FC7">
      <animate attributeName="opacity" values="1;0;1" dur="1s" repeatCount="indefinite" />
</path>
<path d="M223.231 270.324C224.6 269.821 225.638 269.252 225.548 269.053C225.459 268.854 224.276 269.101 222.907 269.603C221.538 270.106 220.5 270.675 220.59 270.874C220.679 271.073 221.862 270.826 223.231 270.324Z" fill="white">
      <animate attributeName="opacity" values="1;0;1" dur="1s" repeatCount="indefinite" />
</path>
<path d="M224.077 272.203C224.297 272.123 224.025 271.055 223.468 269.818C222.912 268.581 222.282 267.644 222.062 267.725C221.842 267.806 222.114 268.874 222.671 270.11C223.227 271.347 223.857 272.284 224.077 272.203Z" fill="white">
      <animate attributeName="opacity" values="1;0;1" dur="1s" repeatCount="indefinite" />
</path>
<path d="M90.8392 1135.64C89.663 1135.64 89.663 1134 90.8392 1134C92.0155 1133.95 92.0155 1135.64 90.8392 1135.64Z" fill="#F3B5AA"/>
<path d="M200.839 642.644C199.663 642.644 199.663 641 200.839 641C202.015 641 202.015 642.644 200.839 642.644Z" fill="#F3B5AA">
      <animate attributeName="opacity" values="1;0;1" dur="1s" repeatCount="indefinite" />
</path>
<path d="M180.839 960.644C179.663 960.644 179.663 959 180.839 959C182.015 959 182.015 960.644 180.839 960.644Z" fill="#F3B5AA">
      <animate attributeName="opacity" values="1;0;1" dur="1s" repeatCount="indefinite" />
</path>
<path d="M148.839 497.645C147.663 497.645 147.663 496.001 148.839 496.001C150.015 495.953 150.015 497.645 148.839 497.645Z" fill="#F3B5AA"/>
<path d="M38.0421 495.985C36.5953 495.985 36.5953 494.001 38.0421 494.001C39.4356 493.953 39.4889 495.985 38.0421 495.985Z" fill="#4F4FC7">
      <animate attributeName="opacity" values="1;0;1" dur="1s" repeatCount="indefinite" />
</path>
<path d="M87.8392 796.644C86.663 796.644 86.663 795 87.8392 795C89.0155 795 89.0155 796.644 87.8392 796.644Z" fill="#F3B5AA"/>
<path d="M88.8392 1329.64C87.663 1329.64 87.663 1328 88.8392 1328C90.0155 1328 90.0155 1329.64 88.8392 1329.64Z" fill="#F3B5AA">
      <animate attributeName="opacity" values="1;0;1" dur="1s" repeatCount="indefinite" />
</path>
<path d="M51.0421 927.984C49.5953 927.984 49.5953 926 51.0421 926C52.4889 926 52.4889 927.984 51.0421 927.984Z" fill="#4F4FC7"/>
<path d="M229.839 1180.64C228.663 1180.64 228.663 1179 229.839 1179C231.015 1179 231.015 1180.64 229.839 1180.64Z" fill="#F3B5AA">
      <animate attributeName="opacity" values="1;0;1" dur="1s" repeatCount="indefinite" />
</path>
<path d="M260.821 1296.47C260.448 1296.47 260.448 1295.99 260.821 1295.99C261.194 1295.94 261.194 1296.47 260.821 1296.47Z" fill="white">
      <animate attributeName="opacity" values="1;0;1" dur="1s" repeatCount="indefinite" />
</path>
<path d="M200.237 1035.48C199.864 1035.48 199.864 1035 200.237 1035C200.61 1035 200.61 1035.48 200.237 1035.48Z" fill="white"/>
<path d="M179.042 1242.98C177.595 1242.98 177.595 1241 179.042 1241C180.489 1241 180.436 1242.98 179.042 1242.98Z" fill="#4F4FC7">
      <animate attributeName="opacity" values="1;0;1" dur="1s" repeatCount="indefinite" />
</path>
<path d="M74.0421 1178.99C72.5953 1178.99 72.5953 1177.01 74.0421 1177.01C75.4356 1177.01 75.4356 1178.99 74.0421 1178.99Z" fill="#4F4FC7">
      <animate attributeName="opacity" values="1;0;1" dur="1s" repeatCount="indefinite" />
</path>
<path d="M188.042 689.984C186.595 689.984 186.595 688 188.042 688C189.436 688 189.436 689.984 188.042 689.984Z" fill="#4F4FC7">
      <animate attributeName="opacity" values="1;0;1" dur="1s" repeatCount="indefinite" />
</path>
<path d="M76.0421 666.984C74.5953 666.984 74.5953 665 76.0421 665C77.4356 665 77.4356 666.984 76.0421 666.984Z" fill="#4F4FC7">
      <animate attributeName="opacity" values="1;0;1" dur="1s" repeatCount="indefinite" />
</path>
<path d="M199.71 1674.41C198.534 1674.41 198.534 1672.77 199.71 1672.77C200.887 1672.77 200.887 1674.41 199.71 1674.41Z" fill="#F3B5AA"/>
<path d="M82.974 1526.65C81.7977 1526.65 81.7977 1525.01 82.974 1525.01C84.1502 1525.01 84.1502 1526.65 82.974 1526.65Z" fill="#F3B5AA">
      <animate attributeName="opacity" values="1;0;1" dur="1s" repeatCount="indefinite" />
</path>
<path d="M153.015 1393.64C151.839 1393.64 151.839 1392 153.015 1392C154.191 1392 154.191 1393.64 153.015 1393.64Z" fill="#F3B5AA"/>
<path d="M36.2797 1718.18C35.9068 1718.18 35.9068 1717.7 36.2797 1717.7C36.6527 1717.7 36.6527 1718.18 36.2797 1718.18Z" fill="white">
      <animate attributeName="opacity" values="1;0;1" dur="1s" repeatCount="indefinite" />
</path>
<path d="M75.2368 1596.51C74.8638 1596.51 74.8638 1596.03 75.2368 1596.03C75.6097 1596.03 75.6097 1596.51 75.2368 1596.51Z" fill="white"/>
<path d="M129.67 1614.73C129.297 1614.73 129.297 1614.24 129.67 1614.24C130.043 1614.24 130.043 1614.73 129.67 1614.73Z" fill="white">
      <animate attributeName="opacity" values="1;0;1" dur="1s" repeatCount="indefinite" />
</path>
<path d="M61.2368 1421.51C60.8638 1421.51 60.8638 1421.03 61.2368 1421.03C61.6097 1421.03 61.6097 1421.51 61.2368 1421.51Z" fill="white">
      <animate attributeName="opacity" values="1;0;1" dur="1s" repeatCount="indefinite" />
</path>
<path d="M106.323 1659.08C105.95 1659.08 105.95 1658.59 106.323 1658.59C106.696 1658.59 106.696 1659.08 106.323 1659.08Z" fill="#4F4FC7"/>
<path d="M176.364 1497.29C174.918 1497.29 174.918 1495.31 176.364 1495.31C177.811 1495.26 177.811 1497.29 176.364 1497.29Z" fill="#4F4FC7">
      <animate attributeName="opacity" values="1;0;1" dur="1s" repeatCount="indefinite" />
</path>
<path d="M74.0421 1705.01C72.5953 1705.01 72.5953 1703.03 74.0421 1703.03C75.4889 1703.03 75.4889 1705.01 74.0421 1705.01Z" fill="#4F4FC7"/>
<path d="M246.403 1733.71C244.957 1733.71 244.957 1731.73 246.403 1731.73C247.85 1731.73 247.85 1733.71 246.403 1733.71Z" fill="#4F4FC7">
      <animate attributeName="opacity" values="1;0;1" dur="1s" repeatCount="indefinite" />
</path>
<path d="M223.231 1585.35C224.6 1584.85 225.638 1584.28 225.548 1584.08C225.459 1583.88 224.276 1584.13 222.907 1584.63C221.538 1585.13 220.5 1585.7 220.59 1585.9C220.679 1586.1 221.862 1585.85 223.231 1585.35Z" fill="white">
      <animate attributeName="opacity" values="1;0;1" dur="1s" repeatCount="indefinite" />
</path>
<path d="M224.077 1587.23C224.297 1587.15 224.025 1586.08 223.468 1584.85C222.912 1583.61 222.282 1582.67 222.062 1582.75C221.842 1582.83 222.114 1583.9 222.671 1585.14C223.227 1586.37 223.857 1587.31 224.077 1587.23Z" fill="white">
      <animate attributeName="opacity" values="1;0;1" dur="1s" repeatCount="indefinite" />
</path>
<path d="M90.8392 2450.67C89.663 2450.67 89.663 2449.03 90.8392 2449.03C92.0155 2448.98 92.0155 2450.67 90.8392 2450.67Z" fill="#F3B5AA">
      <animate attributeName="opacity" values="1;0;1" dur="1s" repeatCount="indefinite" />
</path>
<path d="M200.839 1957.67C199.663 1957.67 199.663 1956.03 200.839 1956.03C202.015 1956.03 202.015 1957.67 200.839 1957.67Z" fill="#F3B5AA"/>
<path d="M180.839 2275.67C179.663 2275.67 179.663 2274.03 180.839 2274.03C182.015 2274.03 182.015 2275.67 180.839 2275.67Z" fill="#F3B5AA">
      <animate attributeName="opacity" values="1;0;1" dur="1s" repeatCount="indefinite" />
</path>
<path d="M148.839 1812.67C147.663 1812.67 147.663 1811.03 148.839 1811.03C150.015 1810.98 150.015 1812.67 148.839 1812.67Z" fill="#F3B5AA">
      <animate attributeName="opacity" values="1;0;1" dur="1s" repeatCount="indefinite" />
</path>
<path d="M38.0421 1811.01C36.5953 1811.01 36.5953 1809.03 38.0421 1809.03C39.4356 1808.98 39.4889 1811.01 38.0421 1811.01Z" fill="#4F4FC7"/>
<path d="M87.8392 2111.67C86.663 2111.67 86.663 2110.03 87.8392 2110.03C89.0155 2110.03 89.0155 2111.67 87.8392 2111.67Z" fill="#F3B5AA">
      <animate attributeName="opacity" values="1;0;1" dur="1s" repeatCount="indefinite" />
</path>
<path d="M88.8392 2644.67C87.663 2644.67 87.663 2643.03 88.8392 2643.03C90.0155 2643.03 90.0155 2644.67 88.8392 2644.67Z" fill="#F3B5AA">
      <animate attributeName="opacity" values="1;0;1" dur="1s" repeatCount="indefinite" />
</path>
<path d="M51.0421 2243.01C49.5953 2243.01 49.5953 2241.03 51.0421 2241.03C52.4889 2241.03 52.4889 2243.01 51.0421 2243.01Z" fill="#4F4FC7"/>
<path d="M229.839 2495.67C228.663 2495.67 228.663 2494.03 229.839 2494.03C231.015 2494.03 231.015 2495.67 229.839 2495.67Z" fill="#F3B5AA">
      <animate attributeName="opacity" values="1;0;1" dur="1s" repeatCount="indefinite" />
</path>
<path d="M260.821 2611.5C260.448 2611.5 260.448 2611.01 260.821 2611.01C261.194 2610.97 261.194 2611.5 260.821 2611.5Z" fill="white"/>
<path d="M200.237 2350.51C199.864 2350.51 199.864 2350.03 200.237 2350.03C200.61 2350.03 200.61 2350.51 200.237 2350.51Z" fill="white">
      <animate attributeName="opacity" values="1;0;1" dur="1s" repeatCount="indefinite" />
</path>
<path d="M179.042 2558.01C177.595 2558.01 177.595 2556.03 179.042 2556.03C180.489 2556.03 180.436 2558.01 179.042 2558.01Z" fill="#4F4FC7"/>
<path d="M74.0421 2494.02C72.5953 2494.02 72.5953 2492.04 74.0421 2492.04C75.4356 2492.04 75.4356 2494.02 74.0421 2494.02Z" fill="#4F4FC7"/>
<path d="M188.042 2005.01C186.595 2005.01 186.595 2003.03 188.042 2003.03C189.436 2003.03 189.436 2005.01 188.042 2005.01Z" fill="#4F4FC7">
      <animate attributeName="opacity" values="1;0;1" dur="1s" repeatCount="indefinite" />
</path>
<path d="M76.0421 1982.01C74.5953 1982.01 74.5953 1980.03 76.0421 1980.03C77.4356 1980.03 77.4356 1982.01 76.0421 1982.01Z" fill="#4F4FC7"/>
<path d="M199.71 2954.41C198.534 2954.41 198.534 2952.77 199.71 2952.77C200.887 2952.77 200.887 2954.41 199.71 2954.41Z" fill="#F3B5AA"/>
<path d="M199.71 4234.41C198.534 4234.41 198.534 4232.77 199.71 4232.77C200.887 4232.77 200.887 4234.41 199.71 4234.41Z" fill="#F3B5AA">
      <animate attributeName="opacity" values="1;0;1" dur="1s" repeatCount="indefinite" />
</path>
<path d="M199.71 5514.41C198.534 5514.41 198.534 5512.77 199.71 5512.77C200.887 5512.77 200.887 5514.41 199.71 5514.41Z" fill="#F3B5AA"/>
<path d="M199.71 6794.41C198.534 6794.41 198.534 6792.77 199.71 6792.77C200.887 6792.77 200.887 6794.41 199.71 6794.41Z" fill="#F3B5AA">
      <animate attributeName="opacity" values="1;0;1" dur="1s" repeatCount="indefinite" />
</path>
<path d="M82.974 2806.65C81.7977 2806.65 81.7977 2805.01 82.974 2805.01C84.1502 2805.01 84.1502 2806.65 82.974 2806.65Z" fill="#F3B5AA"/>
<path d="M82.974 4086.65C81.7977 4086.65 81.7977 4085.01 82.974 4085.01C84.1502 4085.01 84.1502 4086.65 82.974 4086.65Z" fill="#F3B5AA">
      <animate attributeName="opacity" values="1;0;1" dur="1s" repeatCount="indefinite" />
</path>
<path d="M82.974 5366.65C81.7977 5366.65 81.7977 5365.01 82.974 5365.01C84.1502 5365.01 84.1502 5366.65 82.974 5366.65Z" fill="#F3B5AA"/>
<path d="M82.974 6646.65C81.7977 6646.65 81.7977 6645.01 82.974 6645.01C84.1502 6645.01 84.1502 6646.65 82.974 6646.65Z" fill="#F3B5AA">
      <animate attributeName="opacity" values="1;0;1" dur="1s" repeatCount="indefinite" />
</path>
<path d="M153.015 2673.64C151.839 2673.64 151.839 2672 153.015 2672C154.191 2672 154.191 2673.64 153.015 2673.64Z" fill="#F3B5AA"/>
<path d="M153.015 3953.64C151.839 3953.64 151.839 3952 153.015 3952C154.191 3952 154.191 3953.64 153.015 3953.64Z" fill="#F3B5AA">
      <animate attributeName="opacity" values="1;0;1" dur="1s" repeatCount="indefinite" />
</path>
<path d="M153.015 5233.64C151.839 5233.64 151.839 5232 153.015 5232C154.191 5232 154.191 5233.64 153.015 5233.64Z" fill="#F3B5AA"/>
<path d="M153.015 6513.64C151.839 6513.64 151.839 6512 153.015 6512C154.191 6512 154.191 6513.64 153.015 6513.64Z" fill="#F3B5AA">
      <animate attributeName="opacity" values="1;0;1" dur="1s" repeatCount="indefinite" />
</path>
<path d="M36.2797 2998.18C35.9068 2998.18 35.9068 2997.7 36.2797 2997.7C36.6527 2997.7 36.6527 2998.18 36.2797 2998.18Z" fill="white">
      <animate attributeName="opacity" values="1;0;1" dur="1s" repeatCount="indefinite" />
</path>
<path d="M36.2797 4278.18C35.9068 4278.18 35.9068 4277.7 36.2797 4277.7C36.6527 4277.7 36.6527 4278.18 36.2797 4278.18Z" fill="white"/>
<path d="M36.2797 5558.18C35.9068 5558.18 35.9068 5557.7 36.2797 5557.7C36.6527 5557.7 36.6527 5558.18 36.2797 5558.18Z" fill="white"/>
<path d="M36.2797 6838.18C35.9068 6838.18 35.9068 6837.7 36.2797 6837.7C36.6527 6837.7 36.6527 6838.18 36.2797 6838.18Z" fill="white">
      <animate attributeName="opacity" values="1;0;1" dur="1s" repeatCount="indefinite" />
</path>
<path d="M75.2368 2876.51C74.8638 2876.51 74.8638 2876.03 75.2368 2876.03C75.6097 2876.03 75.6097 2876.51 75.2368 2876.51Z" fill="white"/>
<path d="M75.2368 4156.51C74.8638 4156.51 74.8638 4156.03 75.2368 4156.03C75.6097 4156.03 75.6097 4156.51 75.2368 4156.51Z" fill="white"/>
<path d="M75.2368 5436.51C74.8638 5436.51 74.8638 5436.03 75.2368 5436.03C75.6097 5436.03 75.6097 5436.51 75.2368 5436.51Z" fill="white"/>
<path d="M75.2368 6716.51C74.8638 6716.51 74.8638 6716.03 75.2368 6716.03C75.6097 6716.03 75.6097 6716.51 75.2368 6716.51Z" fill="white">
      <animate attributeName="opacity" values="1;0;1" dur="1s" repeatCount="indefinite" />
</path>
<path d="M129.67 2894.73C129.297 2894.73 129.297 2894.24 129.67 2894.24C130.043 2894.24 130.043 2894.73 129.67 2894.73Z" fill="white"/>
<path d="M129.67 4174.73C129.297 4174.73 129.297 4174.24 129.67 4174.24C130.043 4174.24 130.043 4174.73 129.67 4174.73Z" fill="white"/>
<path d="M129.67 5454.73C129.297 5454.73 129.297 5454.24 129.67 5454.24C130.043 5454.24 130.043 5454.73 129.67 5454.73Z" fill="white">
      <animate attributeName="opacity" values="1;0;1" dur="1s" repeatCount="indefinite" />
</path>
<path d="M129.67 6734.73C129.297 6734.73 129.297 6734.24 129.67 6734.24C130.043 6734.24 130.043 6734.73 129.67 6734.73Z" fill="white"/>
<path d="M61.2368 2701.51C60.8638 2701.51 60.8638 2701.03 61.2368 2701.03C61.6097 2701.03 61.6097 2701.51 61.2368 2701.51Z" fill="white"/>
<path d="M61.2368 3981.51C60.8638 3981.51 60.8638 3981.03 61.2368 3981.03C61.6097 3981.03 61.6097 3981.51 61.2368 3981.51Z" fill="white">
      <animate attributeName="opacity" values="1;0;1" dur="1s" repeatCount="indefinite" />
</path>
<path d="M61.2368 5261.51C60.8638 5261.51 60.8638 5261.03 61.2368 5261.03C61.6097 5261.03 61.6097 5261.51 61.2368 5261.51Z" fill="white"/>
<path d="M61.2368 6541.51C60.8638 6541.51 60.8638 6541.03 61.2368 6541.03C61.6097 6541.03 61.6097 6541.51 61.2368 6541.51Z" fill="white"/>
<path d="M106.323 2939.08C105.95 2939.08 105.95 2938.59 106.323 2938.59C106.696 2938.59 106.696 2939.08 106.323 2939.08Z" fill="#4F4FC7"/>
<path d="M106.323 4219.08C105.95 4219.08 105.95 4218.59 106.323 4218.59C106.696 4218.59 106.696 4219.08 106.323 4219.08Z" fill="#4F4FC7">
      <animate attributeName="opacity" values="1;0;1" dur="1s" repeatCount="indefinite" />
</path>
<path d="M106.323 5499.08C105.95 5499.08 105.95 5498.59 106.323 5498.59C106.696 5498.59 106.696 5499.08 106.323 5499.08Z" fill="#4F4FC7"/>
<path d="M106.323 6779.08C105.95 6779.08 105.95 6778.59 106.323 6778.59C106.696 6778.59 106.696 6779.08 106.323 6779.08Z" fill="#4F4FC7"/>
<path d="M176.364 2777.29C174.918 2777.29 174.918 2775.31 176.364 2775.31C177.811 2775.26 177.811 2777.29 176.364 2777.29Z" fill="#4F4FC7">
      <animate attributeName="opacity" values="1;0;1" dur="1s" repeatCount="indefinite" />
</path>
<path d="M176.364 4057.29C174.918 4057.29 174.918 4055.31 176.364 4055.31C177.811 4055.26 177.811 4057.29 176.364 4057.29Z" fill="#4F4FC7"/>
<path d="M176.364 5337.29C174.918 5337.29 174.918 5335.31 176.364 5335.31C177.811 5335.26 177.811 5337.29 176.364 5337.29Z" fill="#4F4FC7"/>
<path d="M176.364 6617.29C174.918 6617.29 174.918 6615.31 176.364 6615.31C177.811 6615.26 177.811 6617.29 176.364 6617.29Z" fill="#4F4FC7"/>
<path d="M74.0421 2985.01C72.5953 2985.01 72.5953 2983.03 74.0421 2983.03C75.4889 2983.03 75.4889 2985.01 74.0421 2985.01Z" fill="#4F4FC7">
      <animate attributeName="opacity" values="1;0;1" dur="1s" repeatCount="indefinite" />
</path>
<path d="M74.0421 4265.01C72.5953 4265.01 72.5953 4263.03 74.0421 4263.03C75.4889 4263.03 75.4889 4265.01 74.0421 4265.01Z" fill="#4F4FC7"/>
<path d="M74.0421 5545.01C72.5953 5545.01 72.5953 5543.03 74.0421 5543.03C75.4889 5543.03 75.4889 5545.01 74.0421 5545.01Z" fill="#4F4FC7"/>
<path d="M74.0421 6825.01C72.5953 6825.01 72.5953 6823.03 74.0421 6823.03C75.4889 6823.03 75.4889 6825.01 74.0421 6825.01Z" fill="#4F4FC7">
      <animate attributeName="opacity" values="1;0;1" dur="1s" repeatCount="indefinite" />
</path>
<path d="M246.403 3013.71C244.957 3013.71 244.957 3011.73 246.403 3011.73C247.85 3011.73 247.85 3013.71 246.403 3013.71Z" fill="#4F4FC7"/>
<path d="M246.403 4293.71C244.957 4293.71 244.957 4291.73 246.403 4291.73C247.85 4291.73 247.85 4293.71 246.403 4293.71Z" fill="#4F4FC7"/>
<path d="M246.403 5573.71C244.957 5573.71 244.957 5571.73 246.403 5571.73C247.85 5571.73 247.85 5573.71 246.403 5573.71Z" fill="#4F4FC7">
      <animate attributeName="opacity" values="1;0;1" dur="1s" repeatCount="indefinite" />
</path>
<path d="M246.403 6853.71C244.957 6853.71 244.957 6851.73 246.403 6851.73C247.85 6851.73 247.85 6853.71 246.403 6853.71Z" fill="#4F4FC7"/>
<path d="M223.231 2865.35C224.6 2864.85 225.638 2864.28 225.548 2864.08C225.459 2863.88 224.276 2864.13 222.907 2864.63C221.538 2865.13 220.5 2865.7 220.59 2865.9C220.679 2866.1 221.862 2865.85 223.231 2865.35Z" fill="white"/>
<path d="M224.077 2867.23C224.297 2867.15 224.025 2866.08 223.468 2864.85C222.912 2863.61 222.282 2862.67 222.062 2862.75C221.842 2862.83 222.114 2863.9 222.671 2865.14C223.227 2866.37 223.857 2867.31 224.077 2867.23Z" fill="white">
      <animate attributeName="opacity" values="1;0;1" dur="1s" repeatCount="indefinite" />
</path>
<path d="M223.231 4145.35C224.6 4144.85 225.638 4144.28 225.548 4144.08C225.459 4143.88 224.276 4144.13 222.907 4144.63C221.538 4145.13 220.5 4145.7 220.59 4145.9C220.679 4146.1 221.862 4145.85 223.231 4145.35Z" fill="white"/>
<path d="M224.077 4147.23C224.297 4147.15 224.025 4146.08 223.468 4144.85C222.912 4143.61 222.282 4142.67 222.062 4142.75C221.842 4142.83 222.114 4143.9 222.671 4145.14C223.227 4146.37 223.857 4147.31 224.077 4147.23Z" fill="white"/>
<path d="M223.231 5425.35C224.6 5424.85 225.638 5424.28 225.548 5424.08C225.459 5423.88 224.276 5424.13 222.907 5424.63C221.538 5425.13 220.5 5425.7 220.59 5425.9C220.679 5426.1 221.862 5425.85 223.231 5425.35Z" fill="white">
      <animate attributeName="opacity" values="1;0;1" dur="1s" repeatCount="indefinite" />
</path>
<path d="M224.077 5427.23C224.297 5427.15 224.025 5426.08 223.468 5424.85C222.912 5423.61 222.282 5422.67 222.062 5422.75C221.842 5422.83 222.114 5423.9 222.671 5425.14C223.227 5426.37 223.857 5427.31 224.077 5427.23Z" fill="white"/>
<path d="M223.231 6705.35C224.6 6704.85 225.638 6704.28 225.548 6704.08C225.459 6703.88 224.276 6704.13 222.907 6704.63C221.538 6705.13 220.5 6705.7 220.59 6705.9C220.679 6706.1 221.862 6705.85 223.231 6705.35Z" fill="white">
      <animate attributeName="opacity" values="1;0;1" dur="1s" repeatCount="indefinite" />
</path>
<path d="M224.077 6707.23C224.297 6707.15 224.025 6706.08 223.468 6704.85C222.912 6703.61 222.282 6702.67 222.062 6702.75C221.842 6702.83 222.114 6703.9 222.671 6705.14C223.227 6706.37 223.857 6707.31 224.077 6707.23Z" fill="white"/>
<path d="M90.8392 3730.67C89.663 3730.67 89.663 3729.03 90.8392 3729.03C92.0155 3728.98 92.0155 3730.67 90.8392 3730.67Z" fill="#F3B5AA"/>
<path d="M90.8392 5010.67C89.663 5010.67 89.663 5009.03 90.8392 5009.03C92.0155 5008.98 92.0155 5010.67 90.8392 5010.67Z" fill="#F3B5AA"/>
<path d="M90.8392 6290.67C89.663 6290.67 89.663 6289.03 90.8392 6289.03C92.0155 6288.98 92.0155 6290.67 90.8392 6290.67Z" fill="#F3B5AA"/>
<path d="M90.8392 7570.67C89.663 7570.67 89.663 7569.03 90.8392 7569.03C92.0155 7568.98 92.0155 7570.67 90.8392 7570.67Z" fill="#F3B5AA">
      <animate attributeName="opacity" values="1;0;1" dur="1s" repeatCount="indefinite" />
</path>
<path d="M200.839 3237.67C199.663 3237.67 199.663 3236.03 200.839 3236.03C202.015 3236.03 202.015 3237.67 200.839 3237.67Z" fill="#F3B5AA"/>
<path d="M200.839 4517.67C199.663 4517.67 199.663 4516.03 200.839 4516.03C202.015 4516.03 202.015 4517.67 200.839 4517.67Z" fill="#F3B5AA"/>
<path d="M200.839 5797.67C199.663 5797.67 199.663 5796.03 200.839 5796.03C202.015 5796.03 202.015 5797.67 200.839 5797.67Z" fill="#F3B5AA"/>
<path d="M200.839 7077.67C199.663 7077.67 199.663 7076.03 200.839 7076.03C202.015 7076.03 202.015 7077.67 200.839 7077.67Z" fill="#F3B5AA">
      <animate attributeName="opacity" values="1;0;1" dur="1s" repeatCount="indefinite" />
</path>
<path d="M180.839 3555.67C179.663 3555.67 179.663 3554.03 180.839 3554.03C182.015 3554.03 182.015 3555.67 180.839 3555.67Z" fill="#F3B5AA"/>
<path d="M180.839 4835.67C179.663 4835.67 179.663 4834.03 180.839 4834.03C182.015 4834.03 182.015 4835.67 180.839 4835.67Z" fill="#F3B5AA"/>
<path d="M180.839 6115.67C179.663 6115.67 179.663 6114.03 180.839 6114.03C182.015 6114.03 182.015 6115.67 180.839 6115.67Z" fill="#F3B5AA"/>
<path d="M180.839 7395.67C179.663 7395.67 179.663 7394.03 180.839 7394.03C182.015 7394.03 182.015 7395.67 180.839 7395.67Z" fill="#F3B5AA"/>
<path d="M148.839 3092.67C147.663 3092.67 147.663 3091.03 148.839 3091.03C150.015 3090.98 150.015 3092.67 148.839 3092.67Z" fill="#F3B5AA">
      <animate attributeName="opacity" values="1;0;1" dur="1s" repeatCount="indefinite" />
</path>
<path d="M148.839 4372.67C147.663 4372.67 147.663 4371.03 148.839 4371.03C150.015 4370.98 150.015 4372.67 148.839 4372.67Z" fill="#F3B5AA"/>
<path d="M148.839 5652.67C147.663 5652.67 147.663 5651.03 148.839 5651.03C150.015 5650.98 150.015 5652.67 148.839 5652.67Z" fill="#F3B5AA"/>
<path d="M148.839 6932.67C147.663 6932.67 147.663 6931.03 148.839 6931.03C150.015 6930.98 150.015 6932.67 148.839 6932.67Z" fill="#F3B5AA">
      <animate attributeName="opacity" values="1;0;1" dur="1s" repeatCount="indefinite" />
</path>
<path d="M38.0421 3091.01C36.5953 3091.01 36.5953 3089.03 38.0421 3089.03C39.4356 3088.98 39.4889 3091.01 38.0421 3091.01Z" fill="#4F4FC7"/>
<path d="M38.0421 4371.01C36.5953 4371.01 36.5953 4369.03 38.0421 4369.03C39.4356 4368.98 39.4889 4371.01 38.0421 4371.01Z" fill="#4F4FC7"/>
<path d="M38.0421 5651.01C36.5953 5651.01 36.5953 5649.03 38.0421 5649.03C39.4356 5648.98 39.4889 5651.01 38.0421 5651.01Z" fill="#4F4FC7"/>
<path d="M38.0421 6931.01C36.5953 6931.01 36.5953 6929.03 38.0421 6929.03C39.4356 6928.98 39.4889 6931.01 38.0421 6931.01Z" fill="#4F4FC7"/>
<path d="M87.8392 3391.67C86.663 3391.67 86.663 3390.03 87.8392 3390.03C89.0155 3390.03 89.0155 3391.67 87.8392 3391.67Z" fill="#F3B5AA">
      <animate attributeName="opacity" values="1;0;1" dur="1s" repeatCount="indefinite" />
</path>
<path d="M87.8392 4671.67C86.663 4671.67 86.663 4670.03 87.8392 4670.03C89.0155 4670.03 89.0155 4671.67 87.8392 4671.67Z" fill="#F3B5AA"/>
<path d="M87.8392 5951.67C86.663 5951.67 86.663 5950.03 87.8392 5950.03C89.0155 5950.03 89.0155 5951.67 87.8392 5951.67Z" fill="#F3B5AA"/>
<path d="M87.8392 7231.67C86.663 7231.67 86.663 7230.03 87.8392 7230.03C89.0155 7230.03 89.0155 7231.67 87.8392 7231.67Z" fill="#F3B5AA">
      <animate attributeName="opacity" values="1;0;1" dur="1s" repeatCount="indefinite" />
</path>
<path d="M88.8392 3924.67C87.663 3924.67 87.663 3923.03 88.8392 3923.03C90.0155 3923.03 90.0155 3924.67 88.8392 3924.67Z" fill="#F3B5AA"/>
<path d="M88.8392 5204.67C87.663 5204.67 87.663 5203.03 88.8392 5203.03C90.0155 5203.03 90.0155 5204.67 88.8392 5204.67Z" fill="#F3B5AA"/>
<path d="M88.8392 6484.67C87.663 6484.67 87.663 6483.03 88.8392 6483.03C90.0155 6483.03 90.0155 6484.67 88.8392 6484.67Z" fill="#F3B5AA">
      <animate attributeName="opacity" values="1;0;1" dur="1s" repeatCount="indefinite" />
</path>
<path d="M88.8392 7764.67C87.663 7764.67 87.663 7763.03 88.8392 7763.03C90.0155 7763.03 90.0155 7764.67 88.8392 7764.67Z" fill="#F3B5AA">
      <animate attributeName="opacity" values="1;0;1" dur="1s" repeatCount="indefinite" />
</path>
<path d="M51.0421 3523.01C49.5953 3523.01 49.5953 3521.03 51.0421 3521.03C52.4889 3521.03 52.4889 3523.01 51.0421 3523.01Z" fill="#4F4FC7">
      <animate attributeName="opacity" values="1;0;1" dur="1s" repeatCount="indefinite" />
</path>
<path d="M51.0421 4803.01C49.5953 4803.01 49.5953 4801.03 51.0421 4801.03C52.4889 4801.03 52.4889 4803.01 51.0421 4803.01Z" fill="#4F4FC7">
      <animate attributeName="opacity" values="1;0;1" dur="1s" repeatCount="indefinite" />
</path>
<path d="M51.0421 6083.01C49.5953 6083.01 49.5953 6081.03 51.0421 6081.03C52.4889 6081.03 52.4889 6083.01 51.0421 6083.01Z" fill="#4F4FC7">
      <animate attributeName="opacity" values="1;0;1" dur="1s" repeatCount="indefinite" />
</path>
<path d="M51.0421 7363.01C49.5953 7363.01 49.5953 7361.03 51.0421 7361.03C52.4889 7361.03 52.4889 7363.01 51.0421 7363.01Z" fill="#4F4FC7">
      <animate attributeName="opacity" values="1;0;1" dur="1s" repeatCount="indefinite" />
</path>
<path d="M229.839 3775.67C228.663 3775.67 228.663 3774.03 229.839 3774.03C231.015 3774.03 231.015 3775.67 229.839 3775.67Z" fill="#F3B5AA">
      <animate attributeName="opacity" values="1;0;1" dur="1s" repeatCount="indefinite" />
</path>
<path d="M229.839 5055.67C228.663 5055.67 228.663 5054.03 229.839 5054.03C231.015 5054.03 231.015 5055.67 229.839 5055.67Z" fill="#F3B5AA"/>
<path d="M229.839 6335.67C228.663 6335.67 228.663 6334.03 229.839 6334.03C231.015 6334.03 231.015 6335.67 229.839 6335.67Z" fill="#F3B5AA">
      <animate attributeName="opacity" values="1;0;1" dur="1s" repeatCount="indefinite" />
</path>
<path d="M229.839 7615.67C228.663 7615.67 228.663 7614.03 229.839 7614.03C231.015 7614.03 231.015 7615.67 229.839 7615.67Z" fill="#F3B5AA">
      <animate attributeName="opacity" values="1;0;1" dur="1s" repeatCount="indefinite" />
</path>
<path d="M260.821 3891.5C260.448 3891.5 260.448 3891.01 260.821 3891.01C261.194 3890.97 261.194 3891.5 260.821 3891.5Z" fill="white"/>
<path d="M260.821 5171.5C260.448 5171.5 260.448 5171.01 260.821 5171.01C261.194 5170.97 261.194 5171.5 260.821 5171.5Z" fill="white">
      <animate attributeName="opacity" values="1;0;1" dur="1s" repeatCount="indefinite" />
</path>
<path d="M260.821 6451.5C260.448 6451.5 260.448 6451.01 260.821 6451.01C261.194 6450.97 261.194 6451.5 260.821 6451.5Z" fill="white"/>
<path d="M260.821 7731.5C260.448 7731.5 260.448 7731.01 260.821 7731.01C261.194 7730.97 261.194 7731.5 260.821 7731.5Z" fill="white">
      <animate attributeName="opacity" values="1;0;1" dur="1s" repeatCount="indefinite" />
</path>
<path d="M200.237 3630.51C199.864 3630.51 199.864 3630.03 200.237 3630.03C200.61 3630.03 200.61 3630.51 200.237 3630.51Z" fill="white"/>
<path d="M200.237 4910.51C199.864 4910.51 199.864 4910.03 200.237 4910.03C200.61 4910.03 200.61 4910.51 200.237 4910.51Z" fill="white">
      <animate attributeName="opacity" values="1;0;1" dur="1s" repeatCount="indefinite" />
</path>
<path d="M200.237 6190.51C199.864 6190.51 199.864 6190.03 200.237 6190.03C200.61 6190.03 200.61 6190.51 200.237 6190.51Z" fill="white"/>
<path d="M200.237 7470.51C199.864 7470.51 199.864 7470.03 200.237 7470.03C200.61 7470.03 200.61 7470.51 200.237 7470.51Z" fill="white">
      <animate attributeName="opacity" values="1;0;1" dur="1s" repeatCount="indefinite" />
</path>
<path d="M179.042 3838.01C177.595 3838.01 177.595 3836.03 179.042 3836.03C180.489 3836.03 180.436 3838.01 179.042 3838.01Z" fill="#4F4FC7">
      <animate attributeName="opacity" values="1;0;1" dur="1s" repeatCount="indefinite" />
</path>
<path d="M179.042 5118.01C177.595 5118.01 177.595 5116.03 179.042 5116.03C180.489 5116.03 180.436 5118.01 179.042 5118.01Z" fill="#4F4FC7">
      <animate attributeName="opacity" values="1;0;1" dur="1s" repeatCount="indefinite" />
</path>
<path d="M179.042 6398.01C177.595 6398.01 177.595 6396.03 179.042 6396.03C180.489 6396.03 180.436 6398.01 179.042 6398.01Z" fill="#4F4FC7"/>
<path d="M179.042 7678.01C177.595 7678.01 177.595 7676.03 179.042 7676.03C180.489 7676.03 180.436 7678.01 179.042 7678.01Z" fill="#4F4FC7"/>
<path d="M74.0421 3774.02C72.5953 3774.02 72.5953 3772.04 74.0421 3772.04C75.4356 3772.04 75.4356 3774.02 74.0421 3774.02Z" fill="#4F4FC7">
      <animate attributeName="opacity" values="1;0;1" dur="1s" repeatCount="indefinite" />
</path>
<path d="M74.0421 5054.02C72.5953 5054.02 72.5953 5052.04 74.0421 5052.04C75.4356 5052.04 75.4356 5054.02 74.0421 5054.02Z" fill="#4F4FC7">
      <animate attributeName="opacity" values="1;0;1" dur="1s" repeatCount="indefinite" />
</path>
<path d="M74.0421 6334.02C72.5953 6334.02 72.5953 6332.04 74.0421 6332.04C75.4356 6332.04 75.4356 6334.02 74.0421 6334.02Z" fill="#4F4FC7"/>
<path d="M74.0421 7614.02C72.5953 7614.02 72.5953 7612.04 74.0421 7612.04C75.4356 7612.04 75.4356 7614.02 74.0421 7614.02Z" fill="#4F4FC7"/>
<path d="M188.042 3285.01C186.595 3285.01 186.595 3283.03 188.042 3283.03C189.436 3283.03 189.436 3285.01 188.042 3285.01Z" fill="#4F4FC7"/>
<path d="M188.042 4565.01C186.595 4565.01 186.595 4563.03 188.042 4563.03C189.436 4563.03 189.436 4565.01 188.042 4565.01Z" fill="#4F4FC7"/>
<path d="M188.042 5845.01C186.595 5845.01 186.595 5843.03 188.042 5843.03C189.436 5843.03 189.436 5845.01 188.042 5845.01Z" fill="#4F4FC7"/>
<path d="M188.042 7125.01C186.595 7125.01 186.595 7123.03 188.042 7123.03C189.436 7123.03 189.436 7125.01 188.042 7125.01Z" fill="#4F4FC7"/>
<path d="M76.0421 3262.01C74.5953 3262.01 74.5953 3260.03 76.0421 3260.03C77.4356 3260.03 77.4356 3262.01 76.0421 3262.01Z" fill="#4F4FC7"/>
<path d="M76.0421 4542.01C74.5953 4542.01 74.5953 4540.03 76.0421 4540.03C77.4356 4540.03 77.4356 4542.01 76.0421 4542.01Z" fill="#4F4FC7">
      <animate attributeName="opacity" values="1;0;1" dur="1s" repeatCount="indefinite" />
</path>
<path d="M76.0421 5822.01C74.5953 5822.01 74.5953 5820.03 76.0421 5820.03C77.4356 5820.03 77.4356 5822.01 76.0421 5822.01Z" fill="#4F4FC7">
      <animate attributeName="opacity" values="1;0;1" dur="1s" repeatCount="indefinite" />
</path>
<path d="M76.0421 7102.01C74.5953 7102.01 74.5953 7100.03 76.0421 7100.03C77.4356 7100.03 77.4356 7102.01 76.0421 7102.01Z" fill="#4F4FC7">
      <animate attributeName="opacity" values="1;0;1" dur="1s" repeatCount="indefinite" />
</path>
</svg>
